<svg xmlns="http://www.w3.org/2000/svg" viewBox="0 0 27.79 30"><title>calendar</title><g id="Calque_2" data-name="Calque 2"><g id="Calque_1-2" data-name="Calque 1"><g id="WcOl4T.tif"><path d="M6.4,0H8.51c2,.73,2.28,2.42,2.14,4.3h6.49C17,2.4,17.2.69,19.29,0H21.4c2,.75,2.23,2.46,2.14,4.32.47,0,.82,0,1.16.05,2.5,0,3.06.59,3.06,3.13,0,6.48,0,13,0,19.44A3.13,3.13,0,0,1,26.32,30H1.48A2.75,2.75,0,0,1,0,27.56C0,20.62,0,13.68,0,6.74A2.13,2.13,0,0,1,2.41,4.38c.6,0,1.2,0,1.91,0C4.06,2.31,4.42.73,6.4,0ZM19.73,16.71H14.47v5.23h5.26Zm-6.39,0H8V22h5.32Zm6.37,11.11V23.15H14.45v4.69ZM25.61,22V16.71H20.88V22ZM2.09,22H6.86V16.71H2.09ZM19.75,10.88h-5.3v4.67h5.3Zm-6.4,0H8v4.7h5.31Zm0,17V23.13H8v4.72Zm12.33-17H20.87v4.72h4.77ZM6.88,15.56V10.84H2.11v4.72Zm0,12.3V23.13H2.12v4.73Zm18.79-4.74H20.87v4.71h4.78Zm-4.25-18c0-.66,0-1.32,0-2s-.31-1-1-1-1.19.17-1.17,1q0,1.92,0,3.84c0,.81.23,1.21,1.13,1.21S21.46,7.75,21.4,7C21.36,6.33,21.4,5.71,21.4,5.09ZM8.54,5.15c0-.7,0-1.4,0-2.1s-.41-.95-1.1-1-1.11.16-1.09,1q0,2,0,4c0,.76.2,1.14,1,1.15S8.61,7.87,8.55,7C8.51,6.4,8.54,5.77,8.54,5.15Z"/></g></g></g></svg>