<svg xmlns="http://www.w3.org/2000/svg" viewBox="0 0 44.13 44.13"><defs><style>.cls-1{fill:#f6f6f6;}.cls-2{fill:#7fd324;}</style></defs><title>check_true</title><g id="Calque_2" data-name="Calque 2"><g id="Calque_1-2" data-name="Calque 1"><path class="cls-1" d="M44.13,18.22v8c-.55,0-.49.5-.57.85a20,20,0,0,1-1.86,5.12A21.3,21.3,0,0,1,27.52,43.42c-.46.11-1.19-.06-1.34.71h-8c-.11-.75-.81-.61-1.22-.67a15.39,15.39,0,0,1-5.65-2.23C5.2,37.53,1.39,32.22.51,25c0-.34-.15-.57-.51-.61V20c.45-.05.48-.37.52-.74a18.72,18.72,0,0,1,2.67-8c3.72-6.12,9-9.9,16.22-10.77C19.75.47,20,.36,20,0h4.36a.51.51,0,0,0,.48.5,19.17,19.17,0,0,1,7.26,2.18,21.29,21.29,0,0,1,11.3,14.19C43.54,17.33,43.36,18.06,44.13,18.22ZM35.7,14.33A2,2,0,0,0,35,12.88c-.6-.61-1.22-1.2-1.84-1.78C32,10,31.1,10,30,11.19,26.4,14.76,22.82,18.3,19.29,21.9c-.61.62-1,.55-1.52,0-1.32-1.4-2.7-2.73-4-4.11s-2.05-1.3-3.35,0c-.61.6-1.23,1.19-1.81,1.81a1.74,1.74,0,0,0,0,2.8q4.23,4.28,8.51,8.51a1.77,1.77,0,0,0,2.9,0q7.49-7.45,15-14.94A2,2,0,0,0,35.7,14.33Z"/><path class="cls-2" d="M35.7,14.33A2,2,0,0,1,35,15.89q-7.47,7.47-15,14.94a1.77,1.77,0,0,1-2.9,0q-4.28-4.23-8.51-8.51a1.74,1.74,0,0,1,0-2.8c.58-.63,1.2-1.22,1.81-1.81,1.3-1.27,2.11-1.25,3.35,0s2.72,2.71,4,4.11c.55.59.91.66,1.52,0C22.82,18.3,26.4,14.76,30,11.19,31.1,10,32,10,33.14,11.1c.62.58,1.24,1.18,1.84,1.78A2,2,0,0,1,35.7,14.33Z"/></g></g></svg>