<svg xmlns="http://www.w3.org/2000/svg" viewBox="0 0 44.63 44.63"><defs><style>.cls-1{fill:#f6f6f6;stroke:gray;stroke-miterlimit:10;stroke-width:0.5px;stroke-dasharray:5 5;}.cls-2{fill:#e4e4e4;}</style></defs><title>check_false</title><g id="Calque_2" data-name="Calque 2"><g id="Calque_1-2" data-name="Calque 1"><path class="cls-1" d="M44.38,18.47v8c-.55,0-.49.5-.57.85A20,20,0,0,1,42,32.39,21.3,21.3,0,0,1,27.77,43.67c-.46.11-1.19-.06-1.34.71h-8c-.11-.75-.81-.61-1.22-.67a15.39,15.39,0,0,1-5.65-2.23c-6.15-3.7-10-9-10.83-16.24,0-.34-.15-.57-.51-.61V20.26c.45-.05.48-.37.52-.74a18.72,18.72,0,0,1,2.67-8c3.72-6.12,9-9.9,16.22-10.77.34,0,.56-.15.61-.51h4.36a.51.51,0,0,0,.48.5,19.17,19.17,0,0,1,7.26,2.18,21.29,21.29,0,0,1,11.3,14.19C43.79,17.58,43.61,18.31,44.38,18.47Z"/><path class="cls-2" d="M36,14.58a2,2,0,0,1-.75,1.56q-7.47,7.47-15,14.94a1.77,1.77,0,0,1-2.9,0q-4.28-4.23-8.51-8.51a1.74,1.74,0,0,1,0-2.8c.58-.63,1.2-1.22,1.81-1.81,1.3-1.27,2.11-1.25,3.35,0s2.72,2.71,4,4.11c.55.59.91.66,1.52,0C23.07,18.55,26.65,15,30.2,11.44c1.15-1.16,2-1.2,3.19-.09.62.58,1.24,1.18,1.84,1.78A2,2,0,0,1,36,14.58Z"/></g></g></svg>