<svg xmlns="http://www.w3.org/2000/svg" viewBox="0 0 27.83 21.29"><defs><style>.cls-1{fill:#7fd324;}</style></defs><title>checked</title><g id="Calque_2" data-name="Calque 2"><g id="Calque_1-2" data-name="Calque 1"><path class="cls-1" d="M27.83,4a2,2,0,0,1-.75,1.56q-7.47,7.47-15,14.94a1.77,1.77,0,0,1-2.9,0Q4.95,16.32.72,12a1.74,1.74,0,0,1,0-2.8C1.28,8.61,1.9,8,2.51,7.42c1.3-1.27,2.11-1.25,3.35,0s2.72,2.71,4,4.11c.55.59.91.66,1.52,0C14.95,8,18.53,4.47,22.08.89c1.15-1.16,2-1.2,3.19-.09.62.58,1.24,1.18,1.84,1.78A2,2,0,0,1,27.83,4Z"/></g></g></svg>