<svg id="Calque_1" data-name="Calque 1" xmlns="http://www.w3.org/2000/svg" viewBox="0 0 44.17 44.18"><title>check_true</title><path d="M44.76,19.12v8c-.55,0-.49.5-.57.85A20,20,0,0,1,42.33,33,21.3,21.3,0,0,1,28.14,44.32c-.46.11-1.19-.06-1.34.71h-8c-.11-.75-.81-.61-1.22-.67A15.39,15.39,0,0,1,12,42.13c-6.15-3.7-10-9-10.83-16.24,0-.34-.15-.57-.51-.61V20.92c.45-.05.48-.37.52-.74a18.72,18.72,0,0,1,2.67-8c3.72-6.12,9-9.9,16.22-10.77.34,0,.56-.15.61-.51H25a.51.51,0,0,0,.48.5,19.17,19.17,0,0,1,7.26,2.18,21.29,21.29,0,0,1,11.3,14.19C44.16,18.24,44,19,44.76,19.12Zm-8.43-3.89a2,2,0,0,0-.72-1.45c-.6-.61-1.22-1.2-1.84-1.78-1.19-1.11-2-1.07-3.19.09C27,15.66,23.45,19.21,19.92,22.8c-.61.62-1,.55-1.52,0-1.32-1.4-2.7-2.73-4-4.11s-2.05-1.3-3.35,0c-.61.6-1.23,1.19-1.81,1.81a1.74,1.74,0,0,0,0,2.8q4.23,4.28,8.51,8.51a1.77,1.77,0,0,0,2.9,0q7.49-7.45,15-14.94A2,2,0,0,0,36.33,15.23Z" transform="translate(-0.61 -0.88)" style="fill:#f6f6f6"/><path d="M20.64.9c0,.36-.27.47-.61.51C12.83,2.29,7.54,6.07,3.82,12.19a18.72,18.72,0,0,0-2.67,8c0,.37-.07.68-.52.74,0-6.39,0-12.79,0-19.18C.6,1,.75.88,1.46.88,7.85.92,14.25.9,20.64.9Z" transform="translate(-0.61 -0.88)" style="fill:#fefefe"/><path d="M44.76,19.12c-.78-.15-.6-.88-.71-1.35A21.29,21.29,0,0,0,32.75,3.58,19.17,19.17,0,0,0,25.49,1.4.51.51,0,0,1,25,.9c6.33,0,12.66,0,19,0,.64,0,.79.14.79.79C44.75,7.49,44.76,13.3,44.76,19.12Z" transform="translate(-0.61 -0.88)" style="fill:#fefefe"/><path d="M.63,25.28c.36,0,.47.27.51.61C2,33.13,5.82,38.43,12,42.13a15.39,15.39,0,0,0,5.65,2.23c.41.06,1.11-.07,1.22.67-5.8,0-11.59,0-17.39,0-.72,0-.85-.15-.85-.85C.64,37.89.63,31.59.63,25.28Z" transform="translate(-0.61 -0.88)" style="fill:#fefefe"/><path d="M26.8,45c.15-.78.88-.6,1.34-.71A21.3,21.3,0,0,0,42.33,33a20,20,0,0,0,1.86-5.12c.08-.35,0-.81.57-.85,0,5.73,0,11.46,0,17.19,0,.64-.14.79-.79.79C38.26,45,32.53,45,26.8,45Z" transform="translate(-0.61 -0.88)" style="fill:#fefefe"/><path d="M36.33,15.23a2,2,0,0,1-.75,1.56q-7.47,7.47-15,14.94a1.77,1.77,0,0,1-2.9,0q-4.28-4.23-8.51-8.51a1.74,1.74,0,0,1,0-2.8c.58-.63,1.2-1.22,1.81-1.81,1.3-1.27,2.11-1.25,3.35,0s2.72,2.71,4,4.11c.55.59.91.66,1.52,0,3.53-3.59,7.11-7.14,10.66-10.71,1.15-1.16,2-1.2,3.19-.09.62.58,1.24,1.18,1.84,1.78A2,2,0,0,1,36.33,15.23Z" transform="translate(-0.61 -0.88)" style="fill:#7fd324"/></svg>