<svg xmlns="http://www.w3.org/2000/svg" viewBox="0 0 103.63 43.53"><defs><style>.cls-1{fill:#4a4a4a;}.cls-2{fill:#fff;}</style></defs><title>cursus_dark</title><g id="Calque_2" data-name="Calque 2"><g id="Calque_1-2" data-name="Calque 1"><g id="cursus_black"><g id="Layer_3" data-name="Layer 3"><g id="path5"><path class="cls-1" d="M27.34,34S33.1,12.84,50.65,12.71s24.85,6.65,25.69,24c-16.27-6.41-29.26,2.47-34.06,6.86C37.34,37.19,37,34.26,27.34,34Z"/></g></g><g id="Layer_2" data-name="Layer 2"><g id="path10"><path class="cls-1" d="M86,23.69c0-2-2.86-4.88-4.27-4.27"/></g><path class="cls-1" d="M86.92,23.69H85.16A4.83,4.83,0,0,0,83,20.55c-.54-.36-.85-.36-.91-.33l-.7-1.61a2.71,2.71,0,0,1,2.58.47C85.44,20,86.92,22,86.92,23.69Z"/><g id="circle12"><circle class="cls-1" cx="86.11" cy="23.93" r="0.87"/></g><g id="circle14"><circle class="cls-1" cx="86.12" cy="24.95" r="1.26"/></g><g id="circle16"><circle class="cls-1" cx="86.12" cy="26.07" r="1.26"/></g><g id="path18"><path class="cls-1" d="M89.09,31.26a1.52,1.52,0,0,1-.28-.42c-.25-1-1-4.18-2.08-4.47a.3.3,0,0,1-.2-.36.27.27,0,0,1,.32-.22c1.2.33,1.92,2.66,2.46,4.89a1.1,1.1,0,0,1-.06.54s0,.19-.07.19l-.1-.15Z"/></g><g id="path20"><path class="cls-1" d="M88.43,31.69a1.52,1.52,0,0,1-.28-.42c-.25-1-1-4.18-2.08-4.47a.3.3,0,0,1-.2-.36.27.27,0,0,1,.32-.22c1.2.33,1.92,2.66,2.46,4.89a1.1,1.1,0,0,1-.06.54s0,.19-.07.19l-.1-.15Z"/></g><g id="path22"><path class="cls-1" d="M86.81,31.9a1.53,1.53,0,0,0,0-.5c-.29-1-1.16-4.15-.38-4.91a.3.3,0,0,0,0-.41.27.27,0,0,0-.39,0c-.89.87-.37,3.26.25,5.47a1.1,1.1,0,0,0,.32.44s.13.14.15.13V31.9Z"/></g><g id="path24"><path class="cls-1" d="M85.82,31.82a1.53,1.53,0,0,0,0-.5c-.29-1-1.16-4.15-.38-4.91a.3.3,0,0,0,0-.41.27.27,0,0,0-.39,0c-.89.87-.37,3.26.25,5.47a1.1,1.1,0,0,0,.32.44s.13.14.15.13v-.18Z"/></g><g id="path26"><path class="cls-1" d="M87.79,31.62a1.72,1.72,0,0,0,.06-.62c-.39-1.27-1.59-5.14-.52-6.09a.35.35,0,0,0,0-.51.39.39,0,0,0-.53,0c-1.21,1.08-.5,4,.35,6.78a1.37,1.37,0,0,0,.44.55s.18.17.21.16v-.23Z"/></g><g id="path8"><path class="cls-1" d="M101.82,11c1.45.31,2.07,1.68-.1,2.44C91.56,17,50,29.13,50,29.13a7.31,7.31,0,0,1-3.92,0S2.65,16.63,1,15.82A1,1,0,0,1,1.19,14C2.26,13.57,47.25,1.27,48.52.87A7.23,7.23,0,0,1,52.68.75S91.51,8.83,101.82,11Z"/><path class="cls-2" d="M48.1,29.88a8.55,8.55,0,0,1-2.19-.29C44.13,29.08,2.45,17.09.81,16.26A1.53,1.53,0,0,1,0,14.81a1.47,1.47,0,0,1,1-1.31c.59-.21,12.17-3.4,28.47-7.89C38.92,3,47.83.56,48.37.39A7.72,7.72,0,0,1,52.78.26c.39.08,38.94,8.11,49.14,10.28h0a1.94,1.94,0,0,1,1.71,1.57c0,.45-.16,1.28-1.75,1.84C91.82,17.45,50.52,29.48,50.1,29.61A7,7,0,0,1,48.1,29.88ZM50.69,1a6.49,6.49,0,0,0-2,.34c-.55.18-9.06,2.52-18.92,5.23C17.37,10,2,14.22,1.36,14.43a.48.48,0,0,0-.36.43.54.54,0,0,0,.26.5c1.3.65,32.87,9.79,44.92,13.26a6.86,6.86,0,0,0,3.64,0c.42-.12,41.7-12.15,51.73-15.65.82-.29,1.09-.63,1.08-.83s-.34-.53-.92-.65C91.52,9.34,53,1.32,52.58,1.23A9.4,9.4,0,0,0,50.69,1Z"/></g></g></g></g></g></svg>