<svg xmlns="http://www.w3.org/2000/svg" viewBox="0 0 77.25 39.45"><defs><style>.cls-1{fill:#4a4a4a;}.cls-2{fill:#fff;}</style></defs><title>cursus_dark</title><g id="Calque_2" data-name="Calque 2"><g id="Calque_1-2" data-name="Calque 1"><g id="cursus_black"><g id="Layer_3" data-name="Layer 3"><g id="path5"><path class="cls-1" d="M14.15,29.95S19.91,8.76,37.46,8.63s24.85,6.65,25.69,24c-16.27-6.41-29.26,2.47-34.06,6.86-4.94-6.34-5.31-9.28-14.94-9.5Z"/></g></g><g id="Layer_2" data-name="Layer 2"><g id="path10"><path class="cls-1" d="M64.14,17.66C64.14,16.17,62,14,61,14.47"/></g><path class="cls-1" d="M64.8,17.66H63.49a3.6,3.6,0,0,0-1.58-2.34c-.4-.27-.63-.27-.68-.25l-.52-1.2a2,2,0,0,1,1.92.35A4.81,4.81,0,0,1,64.8,17.66Z"/><g id="circle12"><circle class="cls-1" cx="64.19" cy="17.84" r="0.65"/></g><g id="circle14"><circle class="cls-1" cx="64.2" cy="18.6" r="0.94"/></g><g id="circle16"><circle class="cls-1" cx="64.2" cy="19.43" r="0.94"/></g><g id="path18"><path class="cls-1" d="M66.41,23.3A1.13,1.13,0,0,1,66.2,23c-.19-.77-.76-3.12-1.55-3.33a.23.23,0,0,1-.15-.27.2.2,0,0,1,.24-.16c.89.24,1.43,2,1.84,3.65a.82.82,0,0,1,0,.41s0,.14-.05.14l-.07-.12Z"/></g><g id="path20"><path class="cls-1" d="M65.92,23.63a1.13,1.13,0,0,1-.21-.31c-.19-.77-.76-3.12-1.55-3.33a.23.23,0,0,1-.15-.27.2.2,0,0,1,.24-.16c.89.24,1.43,2,1.84,3.65a.82.82,0,0,1,0,.41s0,.14-.05.14l-.08-.12Z"/></g><g id="path22"><path class="cls-1" d="M64.71,23.78a1.14,1.14,0,0,0,0-.37c-.21-.76-.87-3.09-.29-3.66a.23.23,0,0,0,0-.31.2.2,0,0,0-.29,0c-.66.65-.27,2.43.19,4.08a.82.82,0,0,0,.24.33s.1.1.11.1v-.14Z"/></g><g id="path24"><path class="cls-1" d="M64,23.72a1.14,1.14,0,0,0,0-.37c-.21-.76-.87-3.09-.29-3.66a.23.23,0,0,0,0-.31.2.2,0,0,0-.29,0c-.66.65-.27,2.43.19,4.08a.82.82,0,0,0,.24.33s.1.1.11.1v-.14Z"/></g><g id="path26"><path class="cls-1" d="M65.44,23.57a1.28,1.28,0,0,0,0-.46c-.29-.95-1.18-3.83-.39-4.54a.26.26,0,0,0,0-.38.29.29,0,0,0-.39,0c-.9.81-.37,3,.26,5.06a1,1,0,0,0,.33.41s.13.13.15.12v-.17Z"/></g><g id="path8"><path class="cls-1" d="M75.9,8.22c1.08.23,1.54,1.26-.07,1.82-7.57,2.65-38.58,11.67-38.58,11.67a5.45,5.45,0,0,1-2.92,0S2,12.4.77,11.79a.76.76,0,0,1,.11-1.38C1.69,10.12,35.23.95,36.17.65a5.39,5.39,0,0,1,3.1-.09S68.21,6.58,75.9,8.22Z"/><path class="cls-2" d="M35.86,22.28a6.37,6.37,0,0,1-1.63-.22C32.9,21.68,1.83,12.74.6,12.12A1.14,1.14,0,0,1,0,11a1.1,1.1,0,0,1,.76-1C1.2,9.9,9.83,7.52,22,4.18,29,2.25,35.66.42,36.06.29a5.76,5.76,0,0,1,3.29-.1c.29.06,29,6,36.63,7.66h0A1.45,1.45,0,0,1,77.25,9c0,.33-.12,1-1.3,1.37C68.45,13,37.66,22,37.35,22.07A5.19,5.19,0,0,1,35.86,22.28ZM37.79.75a4.84,4.84,0,0,0-1.5.26c-.41.13-6.76,1.88-14.1,3.9C12.95,7.44,1.46,10.6,1,10.76a.35.35,0,0,0-.27.32.4.4,0,0,0,.19.37c1,.49,24.5,7.3,33.49,9.88a5.11,5.11,0,0,0,2.71,0c.31-.09,31.09-9.06,38.57-11.67.61-.21.81-.47.8-.62s-.25-.39-.68-.49C68.23,7,39.49,1,39.2.92A7,7,0,0,0,37.79.75Z"/></g></g></g></g></g></svg>