<svg xmlns="http://www.w3.org/2000/svg" viewBox="0 0 70.93 38.5"><defs><style>.cls-1,.cls-2{fill:#d8d8d8;}.cls-2{stroke:#fff;}</style></defs><title>cursus_light</title><g id="Calque_2" data-name="Calque 2"><g id="Calque_1-2" data-name="Calque 1"><g id="Layer_3" data-name="Layer 3"><path id="path5" class="cls-1" d="M11,29S16.75,7.81,34.29,7.68s24.85,6.65,25.69,24C43.71,25.22,30.72,34.1,25.92,38.5,21,32.16,20.62,29.22,11,29Z"/></g><g id="Layer_2" data-name="Layer 2"><path id="path10" class="cls-1" d="M58.78,16.3c0-1.36-1.95-3.33-2.91-2.91"/><path class="cls-1" d="M59.38,16.3h-1.2a3.29,3.29,0,0,0-1.45-2.14c-.37-.24-.58-.24-.62-.22l-.48-1.1a1.85,1.85,0,0,1,1.76.32A4.4,4.4,0,0,1,59.38,16.3Z"/><circle id="circle12" class="cls-1" cx="58.83" cy="16.46" r="0.59"/><circle id="circle14" class="cls-1" cx="58.84" cy="17.16" r="0.86"/><circle id="circle16" class="cls-1" cx="58.84" cy="17.92" r="0.86"/><path id="path18" class="cls-1" d="M60.86,21.46a1,1,0,0,1-.19-.28c-.17-.71-.7-2.85-1.42-3a.21.21,0,0,1-.13-.25.18.18,0,0,1,.22-.15c.82.22,1.31,1.81,1.68,3.33a.75.75,0,0,1,0,.37s0,.13,0,.13l-.07-.11Z"/><path id="path20" class="cls-1" d="M60.41,21.75a1,1,0,0,1-.19-.28c-.17-.71-.7-2.85-1.42-3a.21.21,0,0,1-.13-.25.18.18,0,0,1,.22-.15c.82.22,1.31,1.81,1.68,3.33a.75.75,0,0,1,0,.37s0,.13,0,.13l-.07-.11Z"/><path id="path22" class="cls-1" d="M59.3,21.9a1,1,0,0,0,0-.34c-.2-.7-.79-2.83-.26-3.35a.21.21,0,0,0,0-.28.18.18,0,0,0-.26,0c-.6.59-.25,2.22.17,3.73a.75.75,0,0,0,.22.3s.09.1.1.09V21.9Z"/><path id="path24" class="cls-1" d="M58.63,21.84a1,1,0,0,0,0-.34c-.2-.7-.79-2.83-.26-3.35a.21.21,0,0,0,0-.28.18.18,0,0,0-.26,0c-.6.59-.25,2.22.17,3.73a.75.75,0,0,0,.22.3s.09.1.1.09v-.13Z"/><path id="path26" class="cls-1" d="M60,21.7a1.17,1.17,0,0,0,0-.42c-.27-.87-1.08-3.5-.36-4.15a.24.24,0,0,0,0-.35.27.27,0,0,0-.36,0c-.82.74-.34,2.75.24,4.62a.94.94,0,0,0,.3.37s.12.12.14.11V21.7Z"/><path id="path8" class="cls-2" d="M69.53,7.67c1,.21,1.41,1.15-.07,1.66C62.54,11.75,34.2,20,34.2,20a5,5,0,0,1-2.67,0S2,11.49.86,10.94A.69.69,0,0,1,1,9.67C1.7,9.41,32.36,1,33.22.75A4.93,4.93,0,0,1,36.05.67S62.51,6.17,69.53,7.67Z"/></g></g></g></svg>