<svg xmlns="http://www.w3.org/2000/svg" viewBox="0 0 356.09 352.05"><defs><style>.cls-1{fill:#fff;}</style></defs><title>Fichier 2</title><g id="Calque_2" data-name="Calque 2"><g id="Calque_1-2" data-name="Calque 1"><g id="_2Gl2j0.tif" data-name="2Gl2j0.tif"><path class="cls-1" d="M2.3,353.51q0-176,0-352H358.4q0,176,0,352Zm173.91-99c28,28.31,53.86,54.8,80.17,80.79,17.87,17.66,30.88,17.58,48.78.59,8.8-8.35,17.24-17.09,25.77-25.73,22.24-22.56,22.25-33.13-.42-55.88-25.13-25.21-50.47-50.2-77.28-76.84,28.55-28.15,55.7-54.32,82.14-81.2,16.11-16.38,15.93-29.16.58-45.76-8.69-9.4-18-18.22-27.13-27.22-21.75-21.47-34.07-21.43-56.08.59-25.11,25.13-50,50.45-76.34,77C148,72.19,121.73,45.16,94.86,18.77,79.12,3.32,65,3.62,48.95,18.51c-7.41,6.88-14.36,14.24-21.51,21.4-29.71,29.73-29.81,36.8-.65,65.93,23.7,23.68,47.46,47.3,72.54,72.28C71,206.2,43.88,232.43,17.49,259.34c-16.15,16.46-16,29.09-.55,45.71,9.64,10.36,19.79,20.26,30,30.09,18.62,17.93,31.58,18,50.2-.49C122.94,309,148.29,282.86,176.22,254.53Z" transform="translate(-2.3 -1.47)"/><path d="M176.22,254.53c-27.92,28.33-53.27,54.46-79.09,80.11-18.62,18.5-31.59,18.43-50.2.49-10.2-9.82-20.35-19.72-30-30.09-15.45-16.62-15.6-29.25.55-45.71,26.4-26.9,53.47-53.14,81.84-81.21-25.08-25-48.84-48.6-72.54-72.28C-2.37,76.7-2.28,69.63,27.44,39.91c7.15-7.15,14.1-14.52,21.51-21.4,16-14.89,30.17-15.18,45.91.26C121.73,45.16,148,72.19,176.4,100.88c26.32-26.57,51.23-51.9,76.34-77,22-22,34.33-22.06,56.08-.59,9.12,9,18.44,17.82,27.13,27.22,15.35,16.6,15.53,29.38-.58,45.76-26.44,26.88-53.59,53.05-82.14,81.2,26.81,26.64,52.15,51.63,77.28,76.84,22.68,22.75,22.67,33.32.42,55.88-8.52,8.64-17,17.38-25.77,25.73-17.9,17-30.91,17.07-48.78-.59C230.08,309.33,204.26,282.84,176.22,254.53Z" transform="translate(-2.3 -1.47)"/></g></g></g></svg>