<svg id="Calque_1" data-name="Calque 1" xmlns="http://www.w3.org/2000/svg" viewBox="0 0 39.32 46"><title>file</title><path d="M3,23q0-10,0-20C3,.86,3.83,0,5.86,0h22a6.79,6.79,0,0,1,5,2.06q3.71,3.73,7.43,7.44a6.33,6.33,0,0,1,2,4.62q0,14.58,0,29.17A2.43,2.43,0,0,1,39.53,46H5.68A2.42,2.42,0,0,1,3,43.33Q3,33.14,3,23Zm36.12-6.54H28.76A2.46,2.46,0,0,1,26,13.64c0-3.15,0-6.3,0-9.45,0-.29,0-.58,0-.85H6.17V42.69H39.09Zm-9.92-3.28H39A6.1,6.1,0,0,0,38.29,12q-4-4-8-8a5.59,5.59,0,0,0-1.1-.64Z" transform="translate(-2.97)" style="fill:#4b4b4b"/><path d="M39.09,16.41V42.69H6.17V3.33H25.94c0,.27,0,.56,0,.85,0,3.15,0,6.3,0,9.45a2.46,2.46,0,0,0,2.77,2.78H39.09Zm-29.53,23H35.7c0-2.65,0-5.25,0-7.85a.9.9,0,0,0-.25-.57c-2.64-2.62-5.28-5.23-8-7.91l-9.81,9.87-3.17-3.28-4.38,4.3a1.24,1.24,0,0,0-.23.24,1.56,1.56,0,0,0-.3.63C9.54,36.3,9.55,37.81,9.55,39.37Zm9.71-18a4.85,4.85,0,1,0-4.89,4.89A4.87,4.87,0,0,0,19.26,21.38Z" transform="translate(-2.97)" style="fill:#fff"/><path d="M29.17,13.13V3.39a5.59,5.59,0,0,1,1.1.64q4,4,8,8A6.1,6.1,0,0,1,39,13.13Z" transform="translate(-2.97)" style="fill:#fff"/><path d="M9.55,39.37c0-1.56,0-3.06,0-4.56a1.56,1.56,0,0,1,.3-.63,1.24,1.24,0,0,1,.23-.24l4.38-4.3,3.17,3.28L27.46,23c2.7,2.67,5.35,5.28,8,7.91a.9.9,0,0,1,.25.57c0,2.6,0,5.19,0,7.85Z" transform="translate(-2.97)" style="fill:#4b4b4b"/><path d="M19.26,21.38a4.85,4.85,0,1,1-4.85-4.93A4.87,4.87,0,0,1,19.26,21.38Z" transform="translate(-2.97)" style="fill:#4b4b4b"/></svg>