<svg id="Calque_1" data-name="Calque 1" xmlns="http://www.w3.org/2000/svg" width="39.37" height="45.54" viewBox="0 0 39.37 45.54"><title>file-upload</title><path d="M3.16,22.93q0-10.9,0-21.8c0-.64,0-1,.86-1q18.84.06,37.67,0c.75,0,.83.2.83.87q0,21.92,0,43.83c0,.75-.2.83-.87.83q-18.84,0-37.67,0c-.75,0-.83-.2-.83-.87C3.17,37.54,3.16,30.23,3.16,22.93Zm3.21,1.31c0,5.6,0,11.21,0,16.81,0,1,.18,1.45,1.33,1.39,1.89-.11,3.79,0,5.68,0H37.74c.55,0,1.17.22,1.17-.79q0-12.19,0-24.39c0-.64-.22-.77-.84-.76-3,0-6,.05-9,0-2.37,0-3.16-.84-3.16-3.24q0-4.38,0-8.76c0-.51.09-1-.74-1-5.21,0-10.42,0-15.63,0A2.91,2.91,0,0,0,6.45,6.49,13.22,13.22,0,0,0,6.37,8Q6.36,16.13,6.37,24.24Zm32.31-11a3,3,0,0,0-1-1.58L30.82,4.79A7.24,7.24,0,0,0,29.93,4c-.65-.46-.93-.36-.92.52,0,2.6,0,5.21,0,7.81,0,.62.1.91.82.9C32.75,13.2,35.67,13.23,38.67,13.23Z" transform="translate(-3.14 -0.17)" style="fill:#fcfcfc"/><path d="M6.37,24.24q0-8.11,0-16.22a13.22,13.22,0,0,1,.08-1.53A2.91,2.91,0,0,1,9.53,3.55c5.21-.07,10.42,0,15.63,0,.83,0,.74.49.74,1q0,4.38,0,8.76c0,2.4.8,3.23,3.16,3.24,3,0,6,0,9,0,.62,0,.84.12.84.76q0,12.19,0,24.39c0,1-.62.79-1.17.79H13.35c-1.89,0-3.79-.08-5.68,0-1.15.07-1.33-.36-1.33-1.39C6.39,35.45,6.37,29.84,6.37,24.24ZM32.2,37.31C29.07,34.15,26,31.08,23,28c-.55-.56-.87-.2-1.25.19L13.4,36.56c-.18.18-.47.32-.39.75Z" transform="translate(-3.14 -0.17)" style="fill:#4a4a4a"/><path d="M38.67,13.23c-3,0-5.92,0-8.84,0-.73,0-.83-.28-.82-.9,0-2.6,0-5.21,0-7.81,0-.88.27-1,.92-.52a7.24,7.24,0,0,1,.89.78l6.86,6.86A3,3,0,0,1,38.67,13.23Z" transform="translate(-3.14 -0.17)" style="fill:#4a4a4a"/><path d="M32.2,37.31H13c-.08-.43.21-.57.39-.75l8.34-8.38c.38-.38.7-.75,1.25-.19C26,31.08,29.07,34.15,32.2,37.31Z" transform="translate(-3.14 -0.17)" style="fill:#999"/></svg>