<svg xmlns="http://www.w3.org/2000/svg" viewBox="0 0 176.94 201.29"><defs><style>.cls-1{fill:#4a4a4a;}.cls-2{fill:#9a9a9a;}</style></defs><title>file-upload</title><g id="Calque_2" data-name="Calque 2"><g id="Calque_1-2" data-name="Calque 1"><path class="cls-1" d="M100.07,63.16c1.3,4,3.59,6.82,8.15,7,2.66.09,5.25,2.23,8,.18a1.91,1.91,0,0,1,1.76.5c2.11,3,5.24,2.3,8.14,2.3,14.43,0,28.87,0,43.3,0,2.32,0,3.91.3,3.62,3.09-3,1.26-3.18,3.87-3.18,6.59q0,51.86,0,103.73c0,2.55.5,4.56,3,5.68-.08,5.1-.83,5.93-5.53,6-2.66,0-5.33-.11-8,.05-2.43.15-5.35-1.15-6.79,2.45-.42,1-2.47.45-3.78.45q-25.43,0-50.87,0c-27.43,0-54.86-.09-82.29.08-4.84,0-8-3.18-11.83-4.94-1.7-.78-.69-3.34-.87-5.1,2.57-.54,3.34-2.18,3.16-4.69s0-5,0-7.48Q6,97.43,6,15.85c0-2.72.15-5.39-2.95-6.69,2.49-2.69,5-5.36,7.46-8.08,1.36-1.5,3.11-.87,4.68-.88Q44.09.13,73,.17c8,0,15.93,0,23.9.07.06,8.3.15,16.6.17,24.91q0,16.7,0,33.39C97,60.78,96.89,63,100.07,63.16ZM88.14,164.3h0c16.32,0,32.65-.12,49,.11,2.94,0,4.22-1.4,5.41-3.37a3.68,3.68,0,0,0-1.33-4.86c-3.74-2.28-5.46-6.52-9.27-8.72-1.84-1.07-3.79-1.91-4.71-4.87a16.82,16.82,0,0,0-4.61-7.34c-6.35-5.58-11.57-12.37-18.43-17.45a21.21,21.21,0,0,1-4.35-4.73c-3.22-4.46-7.6-7.89-11.38-11.87-.45-.47-1.19-1-1.62-.29-1.18,2.05-4.2,2.7-4.6,4.95-1,5.39-4.34,9.33-7.22,13.59a14.76,14.76,0,0,1-2.06,2.72c-5.26,4.93-10.49,9.9-15.54,15-7.06,7.21-14,14.53-21.76,21-1.12.94-3,1.73-2.46,3.36.6,1.84,2.67,2.34,4.49,2.63a22.44,22.44,0,0,0,3.49.05Z"/><path class="cls-2" d="M3.06,9.17c3.1,1.3,2.95,4,2.95,6.69Q6,97.43,6,179c0,2.49-.13,5,0,7.48s-.59,4.14-3.16,4.69A2.62,2.62,0,0,1,0,188.4c-.06-1,0-2,0-3Q0,101.19,0,17C0,13.94-.12,10.92,3.06,9.17Z"/><path class="cls-1" d="M122,12.22c2.53,1.18,6,1.26,6.12,5.3,0,.64,1.2.4,1.68.71a28.89,28.89,0,0,1,6.64,5.47c2.47,2.89,5.33,5.61,8.12,8.31,4.83,4.69,10.27,8.81,13,15.27a3.79,3.79,0,0,1,.24,1.89c-2,1-3.23,2.83-4.75,4.34a5.14,5.14,0,0,1-4,1.62c-8.16-.06-16.32-.08-24.48,0-2.2,0-2.85-.86-2.84-3C121.87,38.86,121.91,25.54,122,12.22Z"/><path class="cls-2" d="M172.81,192.16c-2.47-1.12-3-3.13-3-5.68q.08-51.86,0-103.73c0-2.72.17-5.33,3.18-6.59,3,1.79,3.91,4.36,3.89,7.89q-.19,50.2,0,100.4C177,188,176,190.53,172.81,192.16Z"/><path class="cls-2" d="M122,12.22c-.06,13.32-.1,26.64-.22,40,0,2.09.63,3,2.84,3,8.16-.08,16.32-.07,24.48,0a5.14,5.14,0,0,0,4-1.62c1.52-1.51,2.77-3.33,4.75-4.34,4.56.08,5.4,5.09,8.81,6.72.39.19.39,1.28-.07,1.84-1.46,1.79-2.81,3.47-5.62,3.44-12.29-.14-24.58,0-36.87-.11-4.11,0-8.18-4.12-8.2-8.16-.05-10.46,0-20.93,0-31.39C115.77,17,118.42,14.32,122,12.22Z"/><path class="cls-2" d="M100.07,63.16c-3.18-.12-3-2.38-3-4.62q0-16.7,0-33.39c0-8.3-.11-16.6-.17-24.91.83-.05,1.66-.06,2.48-.17,2.69-.35,3.77.59,3.75,3.51q-.17,27.65,0,55.3C103.11,61.34,102.24,62.55,100.07,63.16Z"/><path class="cls-2" d="M88.14,164.3h-47a22.44,22.44,0,0,1-3.49-.05c-1.82-.29-3.89-.79-4.49-2.63-.53-1.63,1.34-2.42,2.46-3.36,7.74-6.51,14.7-13.82,21.76-21,5-5.15,10.27-10.12,15.54-15A14.76,14.76,0,0,0,75,119.46c2.88-4.26,6.27-8.21,7.22-13.59.4-2.25,3.42-2.9,4.6-4.95.43-.75,1.17-.19,1.62.29,3.77,4,8.16,7.4,11.38,11.87a21.21,21.21,0,0,0,4.35,4.73c6.86,5.08,12.08,11.87,18.43,17.45a16.82,16.82,0,0,1,4.61,7.34c.92,3,2.87,3.8,4.71,4.87,3.8,2.2,5.53,6.44,9.27,8.72a3.68,3.68,0,0,1,1.33,4.86c-1.18,2-2.46,3.41-5.41,3.37-16.32-.22-32.65-.11-49-.11Z"/></g></g></svg>