<svg xmlns="http://www.w3.org/2000/svg" viewBox="0 0 69.88 46.46"><defs><style>.cls-1{fill:#333;}.cls-2{fill:#4a4a4a;}</style></defs><title>ID_dark</title><g id="Calque_2" data-name="Calque 2"><g id="Calque_1-2" data-name="Calque 1"><path class="cls-1" d="M6.06,36.14c0-1.9,0-3.79,0-5.69A6,6,0,0,1,9.14,25,5.39,5.39,0,0,1,12,24.23c3.93,0,7.85,0,11.78,0a6,6,0,0,1,5.75,3.61A5.85,5.85,0,0,1,30,30.43q0,2.81,0,5.61c.07.39-.13.44-.47.44H6.44C6.18,36.48,6,36.45,6.06,36.14Z"/><path class="cls-2" d="M34.93,46.46H6.3A6.18,6.18,0,0,1,0,40.17Q0,23.23,0,6.29A6.18,6.18,0,0,1,6.3,0H63.6a6.18,6.18,0,0,1,6.28,6.27q0,17,0,33.92a6.18,6.18,0,0,1-6.28,6.27ZM30,36a2.16,2.16,0,0,0,1.25-2q0-13.34,0-26.69a2.19,2.19,0,0,0-2.23-2.24H6.81a1.92,1.92,0,0,0-.92.19A2.32,2.32,0,0,0,4.55,7.5q0,11.27,0,22.54c0,1.32,0,2.64,0,4a2.25,2.25,0,0,0,1.5,2.14ZM51.43,26.2H38.61a3.54,3.54,0,0,0-.44,0,1.69,1.69,0,0,0-1.43,1.11A1.51,1.51,0,0,0,37.06,29a1.85,1.85,0,0,0,1.51.62H64.44A1.75,1.75,0,0,0,66.15,28a1.69,1.69,0,0,0-1.77-1.85Zm0-12.26H64.17a3.73,3.73,0,0,0,.44,0,1.68,1.68,0,0,0,1.41-1,1.52,1.52,0,0,0-.2-1.62,1.84,1.84,0,0,0-1.57-.71H38.33a1.76,1.76,0,0,0-1.7,1.65,1.72,1.72,0,0,0,1.81,1.71Zm0,7.79H64.15a4.3,4.3,0,0,0,.51,0A1.64,1.64,0,0,0,66,20.66,1.51,1.51,0,0,0,65.79,19a1.84,1.84,0,0,0-1.56-.65H38.17A1.73,1.73,0,0,0,36.63,20a1.77,1.77,0,0,0,1.79,1.74C42.74,21.72,47.06,21.74,51.38,21.74Z"/><path class="cls-1" d="M18.15,21.76a7.82,7.82,0,0,1-7.51-7.61,7.82,7.82,0,0,1,7.59-7.49,7.8,7.8,0,0,1,7.47,7.6A7.81,7.81,0,0,1,18.15,21.76Z"/></g></g></svg>