<svg xmlns="http://www.w3.org/2000/svg" viewBox="0 0 70.38 46.96"><defs><style>.cls-1{fill:#cacaca;}.cls-2{fill:none;stroke:#b1b1b1;stroke-miterlimit:10;stroke-width:0.5px;}</style></defs><title>ID_light</title><g id="Calque_2" data-name="Calque 2"><g id="Calque_1-2" data-name="Calque 1"><path class="cls-1" d="M6.31,36.39c0-1.9,0-3.79,0-5.69A6,6,0,0,1,9.39,25.3a5.39,5.39,0,0,1,2.82-.82c3.93,0,7.85,0,11.78,0a6,6,0,0,1,5.75,3.61,5.85,5.85,0,0,1,.55,2.59q0,2.81,0,5.61c.07.39-.13.44-.47.44H6.69C6.43,36.73,6.26,36.7,6.31,36.39Z"/><path class="cls-2" d="M35.18,46.71H6.55a6.18,6.18,0,0,1-6.3-6.29q0-16.94,0-33.88A6.18,6.18,0,0,1,6.55.25h57.3a6.18,6.18,0,0,1,6.28,6.27q0,17,0,33.92a6.18,6.18,0,0,1-6.28,6.27Zm-4.9-10.42a2.16,2.16,0,0,0,1.25-2q0-13.34,0-26.69A2.19,2.19,0,0,0,29.3,5.37H7.06a1.92,1.92,0,0,0-.92.19A2.32,2.32,0,0,0,4.8,7.75q0,11.27,0,22.54c0,1.32,0,2.64,0,4a2.25,2.25,0,0,0,1.5,2.14Zm21.39-9.84H38.86a3.54,3.54,0,0,0-.44,0A1.69,1.69,0,0,0,37,27.57a1.51,1.51,0,0,0,.32,1.64,1.85,1.85,0,0,0,1.51.62H64.69A1.75,1.75,0,0,0,66.4,28.3a1.69,1.69,0,0,0-1.77-1.85Zm0-12.26H64.42a3.73,3.73,0,0,0,.44,0,1.68,1.68,0,0,0,1.41-1,1.52,1.52,0,0,0-.2-1.62,1.84,1.84,0,0,0-1.57-.71H38.58a1.76,1.76,0,0,0-1.7,1.65,1.72,1.72,0,0,0,1.81,1.71Zm0,7.79H64.4a4.3,4.3,0,0,0,.51,0,1.64,1.64,0,0,0,1.38-1.06A1.51,1.51,0,0,0,66,19.3a1.84,1.84,0,0,0-1.56-.65H38.42a1.73,1.73,0,0,0-1.54,1.6A1.77,1.77,0,0,0,38.67,22C43,22,47.31,22,51.63,22Z"/><path class="cls-1" d="M18.4,22a7.82,7.82,0,0,1-7.51-7.61,7.82,7.82,0,0,1,7.59-7.49,7.8,7.8,0,0,1,7.47,7.6A7.81,7.81,0,0,1,18.4,22Z"/></g></g></svg>