<svg xmlns="http://www.w3.org/2000/svg" viewBox="0 0 47.44 49.5"><defs><style>.cls-1{fill:none;stroke:gray;stroke-linejoin:bevel;stroke-width:0.5px;}</style></defs><title>intentions_light</title><g id="Calque_2" data-name="Calque 2"><g id="Calque_1-2" data-name="Calque 1"><g id="jpJr93"><path class="cls-1" d="M21.86.25q-.1.92-.19,1.84C21.11,7.74,20.6,13.38,20.2,19c-.27,3.71-.56,7.41-.83,11.12,0,.46-.17.64-.65.62-.8,0-1.61,0-2.41,0-1.31,0-1.33,0-1.26,1.28a6.39,6.39,0,0,0,.64,3.13c2.63,4.54,5.16,9.15,7.7,13.75.25.44.36.37.56,0l.21-.36,6.16-11c1.07-1.91,2.37-3.72,2.08-6.12-.07-.59-.19-.74-.74-.72-1,0-2,0-3,0-.46,0-.67-.14-.69-.61-.07-1.26-.18-2.52-.27-3.78-.25-3.55-.49-7.1-.76-10.65q-.33-4.29-.72-8.57C26,4.86,25.81,2.56,25.58.25Z"/><path class="cls-1" d="M21.86.25h3.72"/><path class="cls-1" d="M13.14,4.1q-2.44,5.48-4.81,11a.6.6,0,0,1-.66.43c-.85,0-1.7,0-2.54,0a7.63,7.63,0,0,0,1,2.34c.7,1.57,1.53,3.08,2.21,4.66.27.63.51.46.85.18l3.68-3,4.31-3.5c.14-.12.29-.23.3-.44a6,6,0,0,0-1.88,0c-1,0-1-.07-.76-1,.89-3.12,1.72-6.26,2.65-9.36.51-1.71.94-3.44,1.43-5.15l-4,0C14.32,1.57,13.71,2.83,13.14,4.1Z"/><path class="cls-1" d="M14.92.31l4,0"/><path class="cls-1" d="M29.46,3.64Q31,9.08,32.58,14.51l0,.07c.33,1.07.33,1.07-.77,1.07a5.1,5.1,0,0,0-1.88.06,10.38,10.38,0,0,0,2.13,1.88c2,1.68,4.07,3.31,6.1,5,.42.35.66.39.92-.2.87-1.92,1.8-3.8,2.71-5.7.11-.22.16-.49.43-.59h0v-.55a13.79,13.79,0,0,0-2.47,0,.62.62,0,0,1-.68-.42c-.68-1.6-1.4-3.18-2.1-4.77C35.81,7.65,34.7,5,33.48,2.38l-.73-2c-.84,0-3.34-.11-4.17-.11C28.9,1.38,29.15,2.52,29.46,3.64Z"/><path class="cls-1" d="M28.58.26l2.52,0"/><path class="cls-1" d="M8.65.41l2,0"/><path class="cls-1" d="M3.8,3.81c-.81,1-1.6,1.77-3,1.44a.71.71,0,0,0-.34,0c-.23.06-.26.22-.17.43.44,1.12.9,2.23,1.33,3.36.11.3.21.4.53.24C4.43,8.14,6.72,7,9,5.85a.39.39,0,0,0,.26-.3L9.1,5.43c-.52,0-1.27.25-1.49-.13S8,4.46,8.31,4c.61-1,1.27-2,1.92-3l.45-.67L6.38.48Z"/><path class="cls-1" d="M37,.87c.94,1.27,1.81,2.59,2.71,3.88.09.13.25.23.17.42s-.27.13-.42.14h-1.1a.47.47,0,0,0-.42.07A16.7,16.7,0,0,0,40.56,6.8c1.49.77,3,1.49,4.48,2.26.42.22.56.13.72-.3a16,16,0,0,1,1.18-2.91c.4-.69.34-.8-.36-.81-.41,0-.83,0-1.24,0a1,1,0,0,1-.95-.42C43.21,3.25,42,1.83,40.85.43L36.6.35C36.72.53,36.84.7,37,.87Z"/><path class="cls-1" d="M36.6.35l4.25.08"/><path class="cls-1" d="M5.13,15.56a7.63,7.63,0,0,0,1,2.34c.7,1.57,1.53,3.08,2.21,4.66.27.63.51.46.85.18l3.68-3,4.31-3.5c.14-.12.29-.23.3-.44"/><path class="cls-1" d="M5.49,18.82"/><path class="cls-1" d="M29.95,15.7a10.38,10.38,0,0,0,2.13,1.88c2,1.68,4.07,3.31,6.1,5,.42.35.66.39.92-.2.87-1.92,1.8-3.8,2.71-5.7"/><path class="cls-1" d="M40.56,6.8c1.49.77,3,1.49,4.48,2.26.42.22.56.13.72-.3a16,16,0,0,1,1.18-2.91"/><path class="cls-1" d="M37.65,5.43"/><path class="cls-1" d="M37.74,7.75"/></g></g></g></svg>