<svg xmlns="http://www.w3.org/2000/svg" viewBox="0 0 40.27 32.71"><defs><style>.cls-1{fill:#4a4a4a;}</style></defs><title>intentions_dark</title><g id="Calque_2" data-name="Calque 2"><g id="Calque_1-2" data-name="Calque 1"><g id="Intentions"><g id="intentions_dark"><path class="cls-1" d="M18.81,0c-.07.41-.14.82-.21,1.23C18,5,17.5,8.77,17.11,12.55c-.25,2.48-.53,5-.77,7.43,0,.31-.17.43-.68.42-.84,0-1.68,0-2.52,0-1.38,0-1.39,0-1.3.87a3.09,3.09,0,0,0,.73,2.08c2.82,3,5.44,6.05,8,9.12.25.3.36.25.56,0l.21-.24q3.09-3.66,6.36-7.29c1.14-1.26,2.52-2.45,2.28-4.06-.06-.39-.18-.5-.76-.49-1,0-2.07,0-3.1,0-.48,0-.7-.1-.72-.42-.06-.84-.16-1.68-.24-2.52-.23-2.37-.45-4.74-.72-7.11q-.32-2.86-.72-5.72C23.49,3.09,23.24,1.55,23,0Z" transform="translate(-0.72 0)"/><path class="cls-1" d="M18.81,0H23" transform="translate(-0.72 0)"/><path class="cls-1" d="M9.11,2.68Q6.54,6.38,4.18,10.13c-.15.24-.34.3-.7.31-.92,0-1.84.07-2.76.1.13.58.74,1,1.14,1.53.82,1,1.78,2,2.56,3,.32.41.56.29.92.1l3.84-2.07q2.27-1.21,4.57-2.41c.15-.08.31-.16.32-.3a10.4,10.4,0,0,0-2,0c-1.1,0-1.11,0-.84-.66.89-2.1,1.75-4.2,2.74-6.29.54-1.15,1-2.31,1.53-3.45L11,.11C10.36,1,9.71,1.81,9.11,2.68Z" transform="translate(-0.72 0)"/><path class="cls-1" d="M11,.11,15.45,0" transform="translate(-0.72 0)"/><path class="cls-1" d="M27.32,2.29c1.1,2.43,2.18,4.86,3.23,7.3l0,0c.34.72.34.72-.86.7a8.83,8.83,0,0,0-2,0,11.37,11.37,0,0,0,2.27,1.29c2.14,1.15,4.3,2.28,6.41,3.44.44.24.68.28,1-.11,1-1.25,2.08-2.48,3.15-3.72.12-.14.2-.32.49-.38h0v-.37a23.39,23.39,0,0,0-2.68-.1c-.37,0-.57-.07-.72-.3C36.92,9,36.19,7.94,35.47,6.86c-1.19-1.79-2.34-3.59-3.64-5.35L31.06.16C30.12.14,27.31,0,26.37,0,26.71.78,27,1.54,27.32,2.29Z" transform="translate(-0.72 0)"/><path class="cls-1" d="M26.37,0l2.83,0" transform="translate(-0.72 0)"/><path class="cls-1" d="M.72,10.54c.13.58.74,1,1.14,1.53.82,1,1.78,2,2.56,3,.32.41.56.29.92.1l3.84-2.07q2.27-1.21,4.57-2.41c.15-.08.31-.16.32-.3" transform="translate(-0.72 0)"/><path class="cls-1" d="M1.27,12.7" transform="translate(-0.72 0)"/><path class="cls-1" d="M27.66,10.35a11.37,11.37,0,0,0,2.27,1.29c2.14,1.15,4.3,2.28,6.41,3.44.44.24.68.28,1-.11,1-1.25,2.08-2.48,3.15-3.72" transform="translate(-0.72 0)"/><path class="cls-1" d="M36.39,3.64" transform="translate(-0.72 0)"/><path class="cls-1" d="M36.41,5.19" transform="translate(-0.72 0)"/></g></g></g></g></svg>