<svg xmlns="http://www.w3.org/2000/svg" viewBox="0 0 46.94 49"><defs><style>.cls-1{fill:#4a4a4a;}</style></defs><title>intentions_dark</title><g id="Calque_2" data-name="Calque 2"><g id="Calque_1-2" data-name="Calque 1"><g id="jpJr93"><path class="cls-1" d="M21.61,0q-.1.92-.19,1.84c-.55,5.64-1.07,11.28-1.47,16.93-.27,3.71-.56,7.41-.83,11.12,0,.46-.17.64-.65.62-.8,0-1.61,0-2.41,0-1.31,0-1.33,0-1.26,1.28a6.39,6.39,0,0,0,.64,3.13c2.63,4.54,5.16,9.15,7.7,13.75.25.44.36.37.56,0l.21-.36,6.16-11c1.07-1.91,2.37-3.72,2.08-6.12-.07-.59-.19-.74-.74-.72-1,0-2,0-3,0-.46,0-.67-.14-.69-.61-.07-1.26-.18-2.52-.27-3.78-.25-3.55-.49-7.1-.76-10.65q-.33-4.29-.72-8.57c-.21-2.31-.44-4.61-.67-6.92Z"/><path class="cls-1" d="M21.61,0h3.72"/><path class="cls-1" d="M12.89,3.85q-2.44,5.48-4.81,11a.6.6,0,0,1-.66.43c-.85,0-1.7,0-2.54,0a7.63,7.63,0,0,0,1,2.34c.7,1.57,1.53,3.08,2.21,4.66.27.63.51.46.85.18l3.68-3L16.87,16c.14-.12.29-.23.3-.44a6,6,0,0,0-1.88,0c-1,0-1-.07-.76-1,.89-3.12,1.72-6.26,2.65-9.36.51-1.71.94-3.44,1.43-5.15l-4,0C14.07,1.32,13.46,2.58,12.89,3.85Z"/><path class="cls-1" d="M14.67.06l4,0"/><path class="cls-1" d="M29.21,3.39q1.55,5.44,3.12,10.87l0,.07c.33,1.07.33,1.07-.77,1.07a5.1,5.1,0,0,0-1.88.06,10.38,10.38,0,0,0,2.13,1.88c2,1.68,4.07,3.31,6.1,5,.42.35.66.39.92-.2.87-1.92,1.8-3.8,2.71-5.7.11-.22.16-.49.43-.59h0v-.55a13.79,13.79,0,0,0-2.47,0,.62.62,0,0,1-.68-.42c-.68-1.6-1.4-3.18-2.1-4.77-1.16-2.64-2.27-5.3-3.49-7.91l-.73-2C31.66.12,29.17,0,28.33,0,28.65,1.13,28.9,2.27,29.21,3.39Z"/><path class="cls-1" d="M28.33,0l2.52,0"/><path class="cls-1" d="M8.4.16l2,0"/><path class="cls-1" d="M3.55,3.56C2.74,4.56,2,5.34.56,5A.71.71,0,0,0,.22,5C0,5.08,0,5.24,0,5.45c.44,1.12.9,2.23,1.33,3.36.11.3.21.4.53.24C4.18,7.89,6.47,6.74,8.76,5.6A.39.39,0,0,0,9,5.3l-.16-.12c-.52,0-1.27.25-1.49-.13s.44-.85.7-1.28c.61-1,1.27-2,1.92-3l.45-.67L6.13.23Z"/><path class="cls-1" d="M36.71.62c.94,1.27,1.81,2.59,2.71,3.88.09.13.25.23.17.42s-.27.13-.42.14h-1.1a.47.47,0,0,0-.42.07,16.7,16.7,0,0,0,2.66,1.43c1.49.77,3,1.49,4.48,2.26.42.22.56.13.72-.3a16,16,0,0,1,1.18-2.91c.4-.69.34-.8-.36-.81-.41,0-.83,0-1.24,0a1,1,0,0,1-.95-.42C43,3,41.79,1.58,40.6.18L36.35.1C36.47.28,36.59.45,36.71.62Z"/><path class="cls-1" d="M36.35.1,40.6.18"/><path class="cls-1" d="M4.88,15.31a7.63,7.63,0,0,0,1,2.34c.7,1.57,1.53,3.08,2.21,4.66.27.63.51.46.85.18l3.68-3L16.87,16c.14-.12.29-.23.3-.44"/><path class="cls-1" d="M5.24,18.57"/><path class="cls-1" d="M29.7,15.45a10.38,10.38,0,0,0,2.13,1.88c2,1.68,4.07,3.31,6.1,5,.42.35.66.39.92-.2.87-1.92,1.8-3.8,2.71-5.7"/><path class="cls-1" d="M40.31,6.55c1.49.77,3,1.49,4.48,2.26.42.22.56.13.72-.3a16,16,0,0,1,1.18-2.91"/><path class="cls-1" d="M37.4,5.18"/><path class="cls-1" d="M37.49,7.5"/></g></g></g></svg>