<svg xmlns="http://www.w3.org/2000/svg" viewBox="0 0 40.27 32.71"><defs><style>.cls-1{fill:#cacaca;}</style></defs><title>intentions_light</title><g id="Calque_2" data-name="Calque 2"><g id="Calque_1-2" data-name="Calque 1"><g id="Intentions"><g id="intentions_dark"><path class="cls-1" d="M18.09,3.52c-.07.41-.14.82-.21,1.23-.59,3.77-1.11,7.54-1.5,11.31-.25,2.48-.53,5-.77,7.43,0,.31-.17.43-.68.42-.84,0-1.68,0-2.52,0-1.38,0-1.39,0-1.3.87a3.09,3.09,0,0,0,.73,2.08c2.82,3,5.44,6.05,8,9.12.25.3.36.25.56,0l.21-.24q3.09-3.66,6.36-7.29c1.14-1.26,2.52-2.45,2.28-4.06-.06-.39-.18-.5-.76-.49-1,0-2.07,0-3.1,0-.48,0-.7-.1-.72-.42-.06-.84-.16-1.68-.24-2.52-.23-2.37-.45-4.74-.72-7.11Q23.39,11,23,8.14c-.22-1.54-.46-3.08-.71-4.62Z" transform="translate(0 -3.52)"/><path class="cls-1" d="M18.09,3.52h4.18" transform="translate(0 -3.52)"/><path class="cls-1" d="M8.39,6.19Q5.81,9.9,3.46,13.64c-.15.24-.34.3-.7.31-.92,0-1.84.07-2.76.1.13.58.74,1,1.14,1.53.82,1,1.78,2,2.56,3,.32.41.56.29.92.1l3.84-2.07q2.27-1.21,4.57-2.41c.15-.08.31-.16.32-.3a10.4,10.4,0,0,0-2,0c-1.1,0-1.11,0-.84-.66.89-2.1,1.75-4.2,2.74-6.29.54-1.15,1-2.31,1.53-3.45l-4.44.08C9.64,4.48,9,5.33,8.39,6.19Z" transform="translate(0 -3.52)"/><path class="cls-1" d="M10.29,3.63l4.44-.08" transform="translate(0 -3.52)"/><path class="cls-1" d="M26.6,5.81c1.1,2.43,2.18,4.86,3.23,7.3l0,0c.34.72.34.72-.86.7a8.83,8.83,0,0,0-2,0,11.37,11.37,0,0,0,2.27,1.29c2.14,1.15,4.3,2.28,6.41,3.44.44.24.68.28,1-.11,1-1.25,2.08-2.48,3.15-3.72.12-.14.2-.32.49-.38h0V14a23.39,23.39,0,0,0-2.68-.1c-.37,0-.57-.07-.72-.3-.68-1.09-1.41-2.16-2.12-3.24C33.56,8.59,32.41,6.79,31.11,5l-.77-1.35c-.94,0-3.75-.12-4.69-.13C26,4.3,26.26,5.06,26.6,5.81Z" transform="translate(0 -3.52)"/><path class="cls-1" d="M25.65,3.55l2.83,0" transform="translate(0 -3.52)"/><path class="cls-1" d="M0,14.06c.13.58.74,1,1.14,1.53.82,1,1.78,2,2.56,3,.32.41.56.29.92.1l3.84-2.07q2.27-1.21,4.57-2.41c.15-.08.31-.16.32-.3" transform="translate(0 -3.52)"/><path class="cls-1" d="M.55,16.22" transform="translate(0 -3.52)"/><path class="cls-1" d="M26.94,13.87a11.37,11.37,0,0,0,2.27,1.29c2.14,1.15,4.3,2.28,6.41,3.44.44.24.68.28,1-.11,1-1.25,2.08-2.48,3.15-3.72" transform="translate(0 -3.52)"/><path class="cls-1" d="M35.67,7.16" transform="translate(0 -3.52)"/><path class="cls-1" d="M35.68,8.71" transform="translate(0 -3.52)"/></g></g></g></g></svg>