<svg xmlns="http://www.w3.org/2000/svg" viewBox="0 0 49 454.36"><defs><style>.cls-1{fill:#1d1d1b;}</style></defs><title>logo-vert</title><g id="Calque_2" data-name="Calque 2"><g id="Calque_1-2" data-name="Calque 1"><g id="Logo_Fresnoy" data-name="Logo Fresnoy"><polygon class="cls-1" points="36.35 0 12.82 5.89 0 1.8 0 6.32 12.8 10.29 36.24 4.79 49 10.43 49 5.66 36.35 0"/><path class="cls-1" d="M8.81,32.37c-4.12,0-5.55,4.77-5.55,4.77h11s-1.39-4.77-5.49-4.77"/><polygon class="cls-1" points="20.17 37.14 43.01 37.14 31.92 29.16 20.17 37.14"/><path class="cls-1" d="M15.44,18c-.55-1.27-2.46-4.87-6.6-5.28a7.86,7.86,0,0,0-7.52,3.12A9.07,9.07,0,0,0,0,17.73V37.32h0C.51,36,2.85,29.85,8.81,29.85c4.77,0,7.18,4,8.17,6.22L31.91,25.94,47.24,37V19.32L31.91,10.61Z"/><path class="cls-1" d="M11.81,226c.39-1.6,1-2.44,2.23-2.44,1.43,0,2.28,1.12,2.28,2.71a4.67,4.67,0,0,1-1.22,3.17l-1-.8a3.5,3.5,0,0,0,1-2.4c0-.82-.38-1.34-1-1.34s-.84.3-1.17,1.71c-.39,1.62-.87,2.53-2.28,2.53a2.32,2.32,0,0,1-2.21-2.59,4.21,4.21,0,0,1,1-2.75l1,.72a3.45,3.45,0,0,0-.78,2.06c0,.78.4,1.24.91,1.24s.86-.35,1.2-1.8"/><polygon class="cls-1" points="16.21 218.53 16.21 219.88 9.85 219.88 9.85 222.29 8.62 222.29 8.62 216.13 9.85 216.13 9.85 218.53 16.21 218.53"/><path class="cls-1" d="M12.92,207.91c2.27,0,3.41,1.28,3.41,3.26A3,3,0,0,1,13,214.4H8.62v-1.33h4.32c1.41,0,2.17-.73,2.17-1.92s-.72-1.91-2.11-1.91H8.62v-1.33Z"/><path class="cls-1" d="M9.83,202.81v1.5H15v-1.5a2.48,2.48,0,0,0-2.57-2.63,2.49,2.49,0,0,0-2.59,2.63m6.37,0v2.83H8.62v-2.83a3.8,3.8,0,1,1,7.59,0"/><rect class="cls-1" x="8.62" y="195.32" width="7.59" height="1.33"/><path class="cls-1" d="M9.71,189.24a2.57,2.57,0,0,0,2.69,2.56,2.6,2.6,0,0,0,2.71-2.58,2.57,2.57,0,0,0-2.69-2.56,2.6,2.6,0,0,0-2.71,2.58m6.63,0a3.93,3.93,0,1,1-7.85,0,3.93,3.93,0,1,1,7.85,0"/><polygon class="cls-1" points="24.28 223.65 24.28 222.34 31.87 222.34 31.87 223.46 26.47 227.64 31.87 227.64 31.87 228.95 24.28 228.95 24.28 227.72 29.53 223.65 24.28 223.65"/><path class="cls-1" d="M25.82,216.67l3,1.3v-2.61Zm6-4v1.41l-1.83.77v3.59l1.83.78v1.37l-7.64-3.34V216Z"/><polygon class="cls-1" points="31.87 208.72 31.87 210.07 25.52 210.07 25.52 212.47 24.28 212.47 24.28 206.32 25.52 206.32 25.52 208.72 31.87 208.72"/><rect class="cls-1" x="24.28" y="203.06" width="7.59" height="1.33"/><path class="cls-1" d="M25.37,197a2.57,2.57,0,0,0,2.69,2.56A2.6,2.6,0,0,0,30.77,197a2.57,2.57,0,0,0-2.69-2.56A2.6,2.6,0,0,0,25.37,197M32,197a3.93,3.93,0,1,1-3.94-4A3.86,3.86,0,0,1,32,197"/><polygon class="cls-1" points="24.28 185.65 24.28 184.34 31.87 184.34 31.87 185.46 26.47 189.64 31.87 189.64 31.87 190.95 24.28 190.95 24.28 189.72 29.53 185.65 24.28 185.65"/><path class="cls-1" d="M25.82,178.67l3,1.3v-2.61Zm6-4v1.41l-1.83.77v3.59l1.83.78v1.37l-7.64-3.34V178Z"/><polygon class="cls-1" points="24.28 172.96 24.28 171.62 30.66 171.62 30.66 167.63 31.87 167.63 31.87 172.96 24.28 172.96"/><path class="cls-1" d="M9.83,153.39v1.5H15v-1.5a2.48,2.48,0,0,0-2.57-2.63,2.49,2.49,0,0,0-2.59,2.63m6.38,0v2.83H8.62v-2.83a3.8,3.8,0,1,1,7.59,0"/><polygon class="cls-1" points="9.81 141.68 9.81 145.97 11.79 145.97 11.79 142.17 12.98 142.17 12.98 145.97 15.02 145.97 15.02 141.63 16.21 141.63 16.21 147.31 8.62 147.31 8.62 141.68 9.81 141.68"/><path class="cls-1" d="M11.81,136.68c.39-1.6,1-2.44,2.23-2.44,1.43,0,2.28,1.12,2.28,2.71a4.68,4.68,0,0,1-1.21,3.17l-1-.8a3.5,3.5,0,0,0,1-2.4c0-.82-.38-1.34-1-1.34s-.85.3-1.17,1.71c-.39,1.62-.87,2.53-2.28,2.53a2.32,2.32,0,0,1-2.21-2.59,4.21,4.21,0,0,1,1-2.75l1,.72a3.45,3.45,0,0,0-.78,2.06c0,.78.4,1.24.91,1.24s.86-.35,1.2-1.8"/><path class="cls-1" d="M10.16,125.27l3,1.3V124Zm6.05-4v1.41l-1.83.77v3.59l1.83.78v1.37l-7.64-3.34v-1.24Z"/><path class="cls-1" d="M9.83,116.28v1.94h2.55v-2c0-1-.5-1.56-1.28-1.56s-1.27.59-1.27,1.57m6.38-1.59-2.65,1.86v1.67h2.65v1.33H8.62v-3.38c0-1.75.92-2.82,2.41-2.82a2.27,2.27,0,0,1,2.31,1.81l2.87-2.05Z"/><polygon class="cls-1" points="16.21 108.1 16.21 109.45 9.85 109.45 9.85 111.86 8.62 111.86 8.62 105.7 9.85 105.7 9.85 108.1 16.21 108.1"/><path class="cls-1" d="M11.81,101.09c.39-1.6,1-2.44,2.23-2.44,1.43,0,2.28,1.12,2.28,2.71a4.68,4.68,0,0,1-1.21,3.17l-1-.8a3.5,3.5,0,0,0,1-2.4c0-.82-.38-1.34-1-1.34s-.85.3-1.17,1.71c-.39,1.62-.87,2.53-2.28,2.53a2.32,2.32,0,0,1-2.21-2.59,4.21,4.21,0,0,1,1-2.75l1,.72a3.45,3.45,0,0,0-.78,2.06c0,.78.4,1.24.91,1.24s.86-.35,1.2-1.8"/><path class="cls-1" d="M32,152.7a3.92,3.92,0,0,1-7.85-.05,4,4,0,0,1,1.18-3l1,.86a3,3,0,0,0-.94,2.13,2.71,2.71,0,0,0,5.4,0,3,3,0,0,0-1-2.18l.87-.86A3.91,3.91,0,0,1,32,152.7"/><path class="cls-1" d="M25.38,144.38a2.57,2.57,0,0,0,2.69,2.56,2.6,2.6,0,0,0,2.71-2.58,2.57,2.57,0,0,0-2.69-2.56,2.6,2.6,0,0,0-2.71,2.58m6.62,0a3.92,3.92,0,1,1-3.94-4,3.86,3.86,0,0,1,3.94,4"/><polygon class="cls-1" points="24.28 133.29 24.28 131.98 31.87 131.98 31.87 133.1 26.47 137.28 31.87 137.28 31.87 138.59 24.28 138.59 24.28 137.36 29.53 133.29 24.28 133.29"/><polygon class="cls-1" points="31.87 126.39 31.87 127.73 25.52 127.73 25.52 130.14 24.28 130.14 24.28 123.98 25.52 123.98 25.52 126.39 31.87 126.39"/><polygon class="cls-1" points="25.47 116.51 25.47 120.8 27.45 120.8 27.45 117 28.64 117 28.64 120.8 30.68 120.8 30.68 116.45 31.87 116.45 31.87 122.14 24.28 122.14 24.28 116.51 25.47 116.51"/><polygon class="cls-1" points="30 110.47 30 110.51 26.45 112.89 31.87 112.89 31.87 114.2 24.28 114.2 24.28 112.78 27.87 110.47 24.28 108.16 24.28 106.74 31.87 106.74 31.87 108.07 26.43 108.07 30 110.47"/><path class="cls-1" d="M25.49,101v1.55h2.73V101c0-1-.55-1.64-1.37-1.64s-1.37.64-1.37,1.64m3.94,0v1.51h2.44v1.33H24.28v-3c0-1.77,1-2.88,2.55-2.88,1.71,0,2.6,1.37,2.6,3"/><path class="cls-1" d="M25.38,92.57a2.57,2.57,0,0,0,2.69,2.56,2.6,2.6,0,0,0,2.71-2.58A2.57,2.57,0,0,0,28.09,90a2.6,2.6,0,0,0-2.71,2.58m6.62,0a3.92,3.92,0,1,1-3.94-4,3.85,3.85,0,0,1,3.94,4"/><path class="cls-1" d="M25.49,83.46V85.4H28v-2c0-1-.5-1.56-1.28-1.56s-1.27.59-1.27,1.57m6.38-1.59-2.65,1.86V85.4h2.65v1.33H24.28V83.35c0-1.74.92-2.82,2.41-2.82A2.27,2.27,0,0,1,29,82.35l2.87-2Z"/><path class="cls-1" d="M25.82,75.18l3,1.3V73.87Zm6.05-4v1.41L30,73.38V77l1.83.78v1.37l-7.64-3.34V74.54Z"/><rect class="cls-1" x="24.28" y="68.28" width="7.59" height="1.33"/><polygon class="cls-1" points="24.28 60.27 24.28 58.96 31.87 58.96 31.87 60.08 26.47 64.26 31.87 64.26 31.87 65.57 24.28 65.57 24.28 64.34 29.53 60.27 24.28 60.27"/><path class="cls-1" d="M27.47,53.89c.39-1.61,1-2.44,2.23-2.44,1.43,0,2.28,1.12,2.28,2.71a4.68,4.68,0,0,1-1.21,3.17l-1-.8a3.5,3.5,0,0,0,1-2.4c0-.82-.38-1.34-1-1.34s-.85.3-1.17,1.71c-.39,1.62-.87,2.53-2.28,2.53a2.32,2.32,0,0,1-2.21-2.59,4.21,4.21,0,0,1,1-2.75l1,.72a3.45,3.45,0,0,0-.78,2.06c0,.78.4,1.24.91,1.24s.86-.35,1.2-1.8"/><polygon class="cls-1" points="13.27 83.63 13.27 84.41 9.6 84.41 9.6 85.8 8.88 85.8 8.88 82.24 9.6 82.24 9.6 83.63 13.27 83.63"/><path class="cls-1" d="M10.56,79.56a1,1,0,0,0,1.06,1,1,1,0,0,0,1.07-1,1,1,0,0,0-1.06-1,1,1,0,0,0-1.07,1m2.79,0a1.71,1.71,0,0,1-1.72,1.75,1.76,1.76,0,1,1,1.72-1.75"/><path class="cls-1" d="M10,74.47v-.76h3.31v.76h-.51a1.19,1.19,0,0,1,.58,1,1.14,1.14,0,0,1-1.27,1.18H10v-.76h1.88c.51,0,.81-.26.81-.71a.74.74,0,0,0-.82-.75Z"/><path class="cls-1" d="M13.27,71.63v.76H10v-.76h.75a1.17,1.17,0,0,1-.81-1.17h.8v0c0,.66.43,1.13,1.31,1.13Z"/><path class="cls-1" d="M13.35,67.89a1.69,1.69,0,0,1-1.72,1.71,1.71,1.71,0,0,1-1.74-1.72,1.65,1.65,0,0,1,.57-1.32L11,67a1.12,1.12,0,0,0-.41.86,1,1,0,0,0,1.06,1,1,1,0,0,0,1.07-1,1.16,1.16,0,0,0-.41-.86l.45-.46a1.67,1.67,0,0,1,.62,1.35"/><path class="cls-1" d="M10.56,63.9a1,1,0,0,0,1.06,1,1,1,0,0,0,1.07-1,1,1,0,0,0-1.06-1,1,1,0,0,0-1.07,1m2.79,0a1.71,1.71,0,0,1-1.72,1.75,1.76,1.76,0,1,1,1.72-1.75"/><path class="cls-1" d="M10,60.93v-.76h3.31v.76ZM8.74,61v-.81h.72V61Z"/><path class="cls-1" d="M13.27,58.05v.76H10v-.76h.51a1.19,1.19,0,0,1-.58-1,1.14,1.14,0,0,1,1.27-1.18h2.11v.76H11.39c-.51,0-.81.26-.81.71a.74.74,0,0,0,.82.75Z"/><path class="cls-1" d="M10.53,53a.92.92,0,1,0,1.84,0,.92.92,0,1,0-1.84,0m4.37.36a2.87,2.87,0,0,1-.37,1L14,54a3.73,3.73,0,0,0,.29-.67c.13-.74-.19-1.35-1.66-1.35h-.26A1.56,1.56,0,0,1,13,53.22a1.48,1.48,0,0,1-1.55,1.5,1.49,1.49,0,0,1-1.56-1.5,1.42,1.42,0,0,1,.56-1.16H10V51.3h2.63c1.74,0,2.46.81,2.31,2.08"/><path class="cls-1" d="M16.72,373c2,0,3.3,1.43,3.3,3.94v5.2h-6.7v-5.1c0-2.5,1.13-4,3.33-4Zm7-.2a7.26,7.26,0,0,0-7.24-5h-.06c-4.8,0-7.7,3.3-7.7,8.8v10.67H32v-5.13H24.56v-4l7.47-5v-6Z"/><polygon class="cls-1" points="27.46 343.44 27.46 356.11 22.56 356.11 22.56 345.12 17.99 345.12 17.99 356.11 13.25 356.11 13.25 343.61 8.69 343.61 8.69 361.22 32.03 361.22 32.03 343.44 27.46 343.44"/><path class="cls-1" d="M27.83,328.23a10.67,10.67,0,0,1-2.84,7l3.64,3a14.9,14.9,0,0,0,3.73-9.9c0-5-2.6-8.58-7.24-8.58h-.07c-4.07,0-5.77,2.67-7,7.41-1,4-1.53,5-3.07,5h-.07c-1.14,0-2-1-2-3a11,11,0,0,1,2.3-6.07l-3.87-2.67a13.56,13.56,0,0,0-3,8.67c0,4.78,2.8,8.17,7,8.17h.06c4.64,0,5.94-3,7.14-7.74,1-3.9,1.67-4.7,3-4.7h.07c1.37,0,2.2,1.27,2.2,3.37"/><polygon class="cls-1" points="32.03 293.14 8.69 293.14 8.69 298.21 23.06 298.21 8.69 309.15 8.69 313.89 32.03 313.89 32.03 308.82 17.19 308.82 32.03 297.51 32.03 293.14"/><path class="cls-1" d="M20.42,268.94a7,7,0,0,1,7.27,7A7.09,7.09,0,0,1,20.36,283h-.07A7,7,0,0,1,13,276a7.1,7.1,0,0,1,7.34-7.07Zm-.13-5.37a12.41,12.41,0,0,0,.07,24.81h.07a12.41,12.41,0,0,0-.07-24.81Z"/><polygon class="cls-1" points="8.68 245.9 18.06 251.57 8.68 257.14 8.68 263.14 22.83 254.17 32.03 254.17 32.03 249.03 22.73 249.03 8.68 240.06 8.68 245.9"/><polygon class="cls-1" points="29.63 439.23 29.63 451.84 9.56 451.84 9.56 454.36 31.96 454.36 31.96 439.23 29.63 439.23"/><polygon class="cls-1" points="29.66 418.55 29.66 432.38 21.82 432.38 21.82 420.14 19.52 420.14 19.52 432.38 11.87 432.38 11.87 418.71 9.56 418.71 9.56 434.9 31.96 434.9 31.96 418.55 29.66 418.55"/><polygon class="cls-1" points="22.99 405.5 22.99 394.36 18.32 394.36 18.32 405.5 13.35 405.5 13.35 392.85 8.68 392.85 8.68 410.63 32.03 410.63 32.03 405.5 22.99 405.5"/></g></g></g></svg>