<svg xmlns="http://www.w3.org/2000/svg" viewBox="0 0 61.57 45.56"><defs><style>.cls-1{fill:#4a4a4a;stroke:#9b9b9b;stroke-miterlimit:10;}</style></defs><title>portfolio_dark</title><g id="Calque_2" data-name="Calque 2"><g id="Calque_1-2" data-name="Calque 1"><g id="folder"><path class="cls-1" d="M1.66.5a1.07,1.07,0,0,0-1.12,1V6.34s0,0,0,.06v37A1.73,1.73,0,0,0,2.35,45H45.62a1.73,1.73,0,0,0,1.85-1.59v-37a1.73,1.73,0,0,0-1.85-1.59H28.53V1.47a1.07,1.07,0,0,0-1.12-1Z"/><path class="cls-1" d="M16.49,13.85H59.76c1,0,1.55.67,1.19,1.49L48.32,43.57a2.93,2.93,0,0,1-2.52,1.49H2.53c-1,0-1.55-.67-1.19-1.49L14,15.33a2.93,2.93,0,0,1,2.52-1.49h0"/></g></g></g></svg>