<svg xmlns="http://www.w3.org/2000/svg" viewBox="0 0 53.19 45.56"><defs><style>.cls-1{fill:none;stroke:#9b9b9b;stroke-linejoin:round;}</style></defs><title>portfolio_light</title><g id="Calque_2" data-name="Calque 2"><g id="Calque_1-2" data-name="Calque 1"><g id="ep50To.tif"><path class="cls-1" d="M1.5.5a1,1,0,0,0-1,1V6.34s0,0,0,.06v37A1.59,1.59,0,0,0,2.09,45H39.38A1.59,1.59,0,0,0,41,43.41v-37a1.59,1.59,0,0,0-1.59-1.59H24.66V1.47a1,1,0,0,0-1-1Z"/><path class="cls-1" d="M14.28,13.85H51.57a1,1,0,0,1,1,1.49L41.7,43.57a2.5,2.5,0,0,1-2.17,1.49H2.25a1,1,0,0,1-1-1.49L12.11,15.33a2.5,2.5,0,0,1,2.17-1.49h0"/></g></g></g></svg>