<svg xmlns="http://www.w3.org/2000/svg" viewBox="0 0 61.57 33.95"><defs><style>.cls-1{fill:none;stroke:#9b9b9b;stroke-linejoin:round;}</style></defs><title>portfolio_light</title><g id="Calque_2" data-name="Calque 2"><g id="Calque_1-2" data-name="Calque 1"><g id="ep50To.tif"><path class="cls-1" d="M1.66.5C1,.5.54.83.54,1.22v3.6s0,0,0,0V32.23c0,.65.82,1.18,1.85,1.18H45.62c1,0,1.85-.52,1.85-1.18V4.87c0-.65-.82-1.18-1.85-1.18H28.53V1.22C28.53.83,28,.5,27.41.5Z"/><path class="cls-1" d="M16.49,10.37H59.76c1,0,1.55.49,1.19,1.1L48.32,32.35a3.2,3.2,0,0,1-2.52,1.1H2.53c-1,0-1.55-.49-1.19-1.1L14,11.47a3.2,3.2,0,0,1,2.52-1.1h0"/></g></g></g></svg>