<svg xmlns="http://www.w3.org/2000/svg" viewBox="0 0 48.06 46.19"><defs><style>.cls-1{fill:#4a4a4a;}</style></defs><title>summary_dark</title><g id="Calque_2" data-name="Calque 2"><g id="Calque_1-2" data-name="Calque 1"><g id="check"><g id="check_dark"><path class="cls-1" d="M22.82,26l.11-.1,15.92-16c.74-.74,1.48-1.48,2.21-2.23a2.26,2.26,0,0,1,3.23,0c1,1,2.06,2.07,3.09,3.11a2.25,2.25,0,0,1,0,3.26L36.5,24.95l-12,12.11a2.23,2.23,0,0,1-3.26,0l-9.86-9.92c-.73-.74-1.46-1.49-2.21-2.21a2.29,2.29,0,0,1,0-3.28c1-1,2-2.06,3.07-3.08a2.21,2.21,0,0,1,3.24,0l7.28,7.31Z"/><path class="cls-1" d="M23.06,0H36.9a8.71,8.71,0,0,1,3.6.78,1,1,0,0,1,.33,1.77L39.29,4.11a1,1,0,0,1-1.09.29,5.09,5.09,0,0,0-1.51-.2H9.5A5.14,5.14,0,0,0,4.61,7.39,4.9,4.9,0,0,0,4.2,9.57q0,9.63,0,19.26c0,2.61,0,5.22,0,7.83a5.1,5.1,0,0,0,1.44,3.67A5.11,5.11,0,0,0,9.49,42H36.7a4.88,4.88,0,0,0,2.44-.58,5.18,5.18,0,0,0,2.8-4.06,6.29,6.29,0,0,0,0-.73q0-4,0-8.08a1.23,1.23,0,0,1,.39-.94c.68-.66,1.34-1.33,2-2a1,1,0,0,1,.63-.32,1,1,0,0,1,1.17,1.06q0,3.7,0,7.41c0,1,0,2,0,3.06a9.55,9.55,0,0,1-6.83,9.05,9.63,9.63,0,0,1-2.61.34c-9.1,0-18.19,0-27.29,0a9.53,9.53,0,0,1-9-6.45A9.19,9.19,0,0,1,0,36.9q0-4.78,0-9.57,0-9,0-18a9.07,9.07,0,0,1,3.1-6.9A9,9,0,0,1,6.9.33,10.1,10.1,0,0,1,9.57,0H23.06Z"/></g></g></g></g></svg>