<svg xmlns="http://www.w3.org/2000/svg" viewBox="0 0 23 25.1"><title>trash</title><g id="Calque_2" data-name="Calque 2"><g id="Calque_1-2" data-name="Calque 1"><path d="M20.89,6.36c0,.53,0,1,0,1.51q0,6.76,0,13.52c0,2.67-1.07,3.72-3.75,3.72H5.57c-2.3,0-3.44-1.1-3.46-3.43,0-4.66,0-9.32,0-14,0-.41,0-.83,0-1.32a6.18,6.18,0,0,0-.94-.08C.34,6.37,0,6.06,0,5.19s.45-1,1.16-1c1.18,0,2.37,0,3.55,0,.61,0,1.05-.1,1.2-.75C6.58.66,8.5-.33,11.26.1a1.57,1.57,0,0,0,.46,0c2.8-.41,4.71.46,5.44,3.43.08.3.69.64,1.08.67a34.56,34.56,0,0,0,3.66,0c.77,0,1.1.22,1.1,1s-.32,1.11-1.1,1.05A8.49,8.49,0,0,0,20.89,6.36Zm-16.75,0c0,5.21,0,10.29,0,15.37,0,.92.37,1.34,1.39,1.32,3.86-.06,7.72,0,11.57,0,1.63,0,1.75-.1,1.75-1.74q0-7,0-14c0-.3,0-.59-.06-.95ZM15.06,4.17c-.47-2-.47-2-2.37-2h-2.4c-1.84,0-2,.11-2.29,2Z"/><path d="M8.31,14.66c0,1.41,0,2.82,0,4.23,0,.66-.2,1-.92,1s-1.11-.08-1.11-.9q0-4.29,0-8.58c0-.82.45-.9,1.1-.91s.93.3.92,1C8.29,11.84,8.31,13.25,8.31,14.66Z"/><path d="M16.72,14.65c0,1.41,0,2.83,0,4.24,0,.76-.32,1-1,1s-1-.25-1-1q0-4.18,0-8.36c0-.71.19-1,1-1s1.1.27,1.08,1.06C16.69,11.9,16.72,13.27,16.72,14.65Z"/><path d="M12.51,14.78c0,1.33,0,2.67,0,4,0,.76-.22,1.1-1,1.09s-1-.33-1-1q0-4.17,0-8.34c0-.71.2-1,1-1s1.05.34,1,1.09C12.48,12,12.51,13.37,12.51,14.78Z"/></g></g></svg>