<svg id="Calque_1" data-name="Calque 1" xmlns="http://www.w3.org/2000/svg" viewBox="0 0 402.74 85.06"><defs><style>.cls-1{fill:#1d1d1b;}</style></defs><title>logo_LeFresnoy_tg</title><path class="cls-1" d="M240.5,14.3c0,2.4-1.75,4-4.81,4h-6.35V10.16h6.23c3.05,0,4.93,1.38,4.93,4.07V14.3Zm0.24,8.51a8.86,8.86,0,0,0,6.1-8.84V13.9c0-5.86-4-9.4-10.74-9.4h-13V33h6.26V23.87h4.93l6.1,9.12h7.33Z" transform="translate(0 0)"/><polygon class="cls-1" points="276.6 27.4 261.13 27.4 261.13 21.42 274.55 21.42 274.55 15.85 261.13 15.85 261.13 10.07 276.39 10.07 276.39 4.5 254.9 4.5 254.9 32.99 276.6 32.99 276.6 27.4"/><path class="cls-1" d="M295.15,27.86a13,13,0,0,1-8.51-3.46l-3.71,4.44A18.18,18.18,0,0,0,295,33.39c6.15,0,10.46-3.17,10.46-8.83V24.48c0-5-3.26-7-9-8.55-4.93-1.26-6.14-1.87-6.14-3.74V12.11c0-1.39,1.26-2.48,3.66-2.48a13.39,13.39,0,0,1,7.41,2.81l3.25-4.73a16.55,16.55,0,0,0-10.58-3.62c-5.83,0-10,3.42-10,8.59v0.08c0,5.66,3.7,7.25,9.44,8.71,4.76,1.22,5.74,2,5.74,3.62v0.09c0,1.67-1.55,2.69-4.11,2.69" transform="translate(0 0)"/><polygon class="cls-1" points="337.97 32.99 337.97 4.5 331.78 4.5 331.78 22.04 318.43 4.5 312.65 4.5 312.65 32.99 318.83 32.99 318.83 14.88 332.64 32.99 337.97 32.99"/><path class="cls-1" d="M367.5,18.82c0,4.89-3.5,8.87-8.55,8.87a8.66,8.66,0,0,1-8.63-9V18.66c0-4.89,3.5-8.88,8.54-8.88a8.66,8.66,0,0,1,8.63,9v0.08Zm6.55-.16c0-8.1-6.3-14.65-15.1-14.65s-15.18,6.64-15.18,14.73v0.08c0,8.1,6.31,14.65,15.1,14.65s15.18-6.63,15.18-14.73V18.66Z" transform="translate(0 0)"/><polygon class="cls-1" points="395.62 4.5 388.7 15.93 381.9 4.5 374.58 4.5 385.53 21.75 385.53 32.99 391.8 32.99 391.8 21.63 402.74 4.5 395.62 4.5"/><polygon class="cls-1" points="159.71 30.06 144.32 30.06 144.32 5.57 141.24 5.57 141.24 32.9 159.71 32.9 159.71 30.06"/><polygon class="cls-1" points="184.94 30.09 168.07 30.09 168.07 20.52 182.99 20.52 182.99 17.72 168.07 17.72 168.07 8.38 184.74 8.38 184.74 5.57 164.98 5.57 164.98 32.9 184.94 32.9 184.94 30.09"/><polygon class="cls-1" points="82.86 0 29.21 13.42 0 4.11 0 14.39 29.17 23.45 82.6 10.91 111.68 23.76 111.68 12.89 82.86 0"/><path class="cls-1" d="M20.07,73.77c-9.38,0-12.65,10.88-12.65,10.88H32.58S29.42,73.77,20.07,73.77" transform="translate(0 0)"/><polygon class="cls-1" points="45.98 84.65 98.04 84.65 72.75 66.46 45.98 84.65"/><path class="cls-1" d="M35.2,41c-1.25-2.89-5.61-11.1-15-12A17.91,17.91,0,0,0,3,36.09,20.66,20.66,0,0,0,.07,40.42V85.06H0.18c1-2.95,6.32-17,19.9-17,10.86,0,16.37,9.06,18.62,14.18l34-23.1,34.94,25.12V44L72.74,24.19Z" transform="translate(0 0)"/><path class="cls-1" d="M247.31,50.8H245.2v7.29h2.11a3.64,3.64,0,1,0,0-7.29m0,9h-4V49.08h4a5.37,5.37,0,1,1,0,10.72" transform="translate(0 0)"/><polygon class="cls-1" points="263.85 50.77 257.78 50.77 257.78 53.55 263.16 53.55 263.16 55.23 257.78 55.23 257.78 58.11 263.92 58.11 263.92 59.8 255.9 59.8 255.9 49.08 263.85 49.08 263.85 50.77"/><path class="cls-1" d="M270.9,53.58c2.26,0.55,3.44,1.36,3.44,3.16,0,2-1.58,3.21-3.83,3.21A6.61,6.61,0,0,1,266,58.24l1.13-1.35a4.93,4.93,0,0,0,3.38,1.39c1.16,0,1.9-.53,1.9-1.36S272,55.72,270,55.27c-2.28-.55-3.57-1.23-3.57-3.21s1.53-3.12,3.66-3.12A5.94,5.94,0,0,1,274,50.28l-1,1.42a4.87,4.87,0,0,0-2.91-1.1c-1.1,0-1.75.57-1.75,1.29s0.49,1.21,2.54,1.7" transform="translate(0 0)"/><path class="cls-1" d="M287,51.25l-1.84,4.29h3.69Zm5.62,8.54h-2l-1.09-2.59h-5.07l-1.1,2.59h-1.93L286.18,49h1.75Z" transform="translate(0 0)"/><path class="cls-1" d="M299.71,50.8H297v3.6h2.76c1.35,0,2.21-.7,2.21-1.8s-0.83-1.79-2.22-1.79m2.25,9-2.63-3.74H297V59.8h-1.88V49.08h4.78c2.46,0,4,1.3,4,3.4a3.21,3.21,0,0,1-2.56,3.26l2.89,4.06H302Z" transform="translate(0 0)"/><polygon class="cls-1" points="311.25 59.8 309.35 59.8 309.35 50.83 305.95 50.83 305.95 49.08 314.65 49.08 314.65 50.83 311.25 50.83 311.25 59.8"/><path class="cls-1" d="M321.15,53.58c2.26,0.55,3.44,1.36,3.44,3.16,0,2-1.58,3.21-3.83,3.21a6.61,6.61,0,0,1-4.47-1.71l1.13-1.35a4.93,4.93,0,0,0,3.38,1.39c1.16,0,1.9-.53,1.9-1.36s-0.43-1.19-2.42-1.65c-2.28-.55-3.57-1.23-3.57-3.21s1.53-3.12,3.66-3.12a5.94,5.94,0,0,1,3.89,1.34l-1,1.42a4.87,4.87,0,0,0-2.91-1.1c-1.1,0-1.75.57-1.75,1.29s0.49,1.21,2.54,1.7" transform="translate(0 0)"/><path class="cls-1" d="M248.29,82.09A5.54,5.54,0,0,1,248.37,71a5.59,5.59,0,0,1,4.2,1.67l-1.21,1.4a4.26,4.26,0,0,0-3-1.33,3.82,3.82,0,0,0,0,7.62A4.19,4.19,0,0,0,251.43,79l1.21,1.22a5.52,5.52,0,0,1-4.35,1.9" transform="translate(0 0)"/><path class="cls-1" d="M260,72.74a3.63,3.63,0,0,0-3.61,3.79,3.68,3.68,0,0,0,3.64,3.83,3.62,3.62,0,0,0,3.61-3.8A3.67,3.67,0,0,0,260,72.74m0,9.35a5.54,5.54,0,1,1,5.62-5.56A5.44,5.44,0,0,1,260,82.09" transform="translate(0 0)"/><polygon class="cls-1" points="275.69 71.19 277.54 71.19 277.54 81.91 275.96 81.91 270.06 74.28 270.06 81.91 268.2 81.91 268.2 71.19 269.95 71.19 275.69 78.6 275.69 71.19"/><polygon class="cls-1" points="285.44 81.91 283.54 81.91 283.54 72.94 280.14 72.94 280.14 71.19 288.84 71.19 288.84 72.94 285.44 72.94 285.44 81.91"/><polygon class="cls-1" points="299.38 72.88 293.32 72.88 293.32 75.66 298.7 75.66 298.7 77.35 293.32 77.35 293.32 80.22 299.46 80.22 299.46 81.91 291.44 81.91 291.44 71.19 299.38 71.19 299.38 72.88"/><polygon class="cls-1" points="307.92 79.27 307.85 79.27 304.5 74.25 304.5 81.91 302.65 81.91 302.65 71.19 304.65 71.19 307.92 76.26 311.17 71.19 313.18 71.19 313.18 81.91 311.3 81.91 311.3 74.22 307.92 79.27"/><path class="cls-1" d="M321.3,72.91h-2.19v3.86h2.19c1.42,0,2.31-.78,2.31-1.93s-0.9-1.93-2.31-1.93m-0.06,5.56h-2.13v3.45h-1.88V71.19h4.22c2.49,0,4.07,1.41,4.07,3.6,0,2.42-1.93,3.67-4.29,3.67" transform="translate(0 0)"/><path class="cls-1" d="M333.18,72.74a3.62,3.62,0,0,0-3.61,3.79,3.67,3.67,0,0,0,3.64,3.83,3.62,3.62,0,0,0,3.61-3.8,3.68,3.68,0,0,0-3.64-3.82m0,9.35a5.54,5.54,0,1,1,5.62-5.56,5.44,5.44,0,0,1-5.62,5.56" transform="translate(0 0)"/><path class="cls-1" d="M346,72.91H343.3v3.6h2.75c1.35,0,2.2-.7,2.2-1.8s-0.83-1.79-2.22-1.79m2.25,9-2.63-3.74H343.3v3.74h-1.88V71.19h4.78c2.46,0,4,1.3,4,3.4a3.21,3.21,0,0,1-2.56,3.26l2.89,4.06h-2.22Z" transform="translate(0 0)"/><path class="cls-1" d="M357.73,73.37l-1.84,4.29h3.69Zm5.62,8.54h-2l-1.09-2.59H355.2l-1.1,2.59h-1.93l4.71-10.79h1.74Z" transform="translate(0 0)"/><rect class="cls-1" x="365.6" y="71.19" width="1.88" height="10.72"/><polygon class="cls-1" points="378.78 71.19 380.63 71.19 380.63 81.91 379.06 81.91 373.15 74.28 373.15 81.91 371.29 81.91 371.29 71.19 373.04 71.19 378.78 78.6 378.78 71.19"/><path class="cls-1" d="M387.79,75.69c2.27,0.55,3.45,1.36,3.45,3.16,0,2-1.58,3.21-3.83,3.21a6.61,6.61,0,0,1-4.47-1.71L384.07,79a4.94,4.94,0,0,0,3.38,1.39c1.16,0,1.9-.53,1.9-1.36s-0.43-1.2-2.42-1.65c-2.28-.55-3.57-1.23-3.57-3.21S384.9,71,387,71a5.94,5.94,0,0,1,3.89,1.35l-1,1.42a4.87,4.87,0,0,0-2.91-1.1c-1.1,0-1.74.57-1.74,1.29s0.49,1.21,2.54,1.7" transform="translate(0 0)"/><path class="cls-1" d="M144.76,53.58c2.27,0.55,3.44,1.36,3.44,3.15,0,2-1.58,3.22-3.83,3.22a6.6,6.6,0,0,1-4.47-1.72L141,56.89a4.94,4.94,0,0,0,3.38,1.39c1.16,0,1.9-.54,1.9-1.36s-0.43-1.19-2.42-1.65c-2.28-.55-3.57-1.22-3.57-3.22s1.53-3.12,3.66-3.12a5.94,5.94,0,0,1,3.89,1.35l-1,1.42A4.87,4.87,0,0,0,144,50.6c-1.1,0-1.75.57-1.75,1.29s0.49,1.21,2.54,1.7" transform="translate(0 0)"/><polygon class="cls-1" points="155.34 59.8 153.44 59.8 153.44 50.83 150.04 50.83 150.04 49.08 158.74 49.08 158.74 50.83 155.34 50.83 155.34 59.8"/><path class="cls-1" d="M170.34,55.16c0,3.2-1.81,4.81-4.61,4.81s-4.56-1.61-4.56-4.72V49.08h1.88v6.09c0,2,1,3.06,2.71,3.06s2.69-1,2.69-3V49.08h1.88v6.08Z" transform="translate(0 0)"/><path class="cls-1" d="M177.53,50.8h-2.11v7.29h2.11a3.64,3.64,0,1,0,0-7.29m0,9h-4V49.08h4a5.37,5.37,0,1,1,0,10.72" transform="translate(0 0)"/><rect class="cls-1" x="186.23" y="49.08" width="1.88" height="10.72"/><path class="cls-1" d="M196.7,50.63a3.63,3.63,0,0,0-3.61,3.8,3.68,3.68,0,0,0,3.64,3.83,3.63,3.63,0,0,0,3.61-3.8,3.68,3.68,0,0,0-3.64-3.83m0,9.35a5.54,5.54,0,1,1,5.62-5.56A5.44,5.44,0,0,1,196.7,60" transform="translate(0 0)"/><polygon class="cls-1" points="148.12 71.19 149.97 71.19 149.97 81.91 148.39 81.91 142.48 74.28 142.48 81.91 140.63 81.91 140.63 71.19 142.38 71.19 148.12 78.6 148.12 71.19"/><path class="cls-1" d="M158,73.37l-1.84,4.29h3.69Zm5.62,8.54h-2l-1.09-2.59h-5.07l-1.1,2.59h-1.93l4.71-10.79h1.75Z" transform="translate(0 0)"/><polygon class="cls-1" points="169.19 81.91 167.29 81.91 167.29 72.94 163.9 72.94 163.9 71.19 172.59 71.19 172.59 72.94 169.19 72.94 169.19 81.91"/><rect class="cls-1" x="175.3" y="71.19" width="1.88" height="10.72"/><path class="cls-1" d="M185.77,72.74a3.63,3.63,0,0,0-3.61,3.8,3.67,3.67,0,0,0,3.64,3.83,3.62,3.62,0,0,0,3.61-3.8,3.68,3.68,0,0,0-3.64-3.83m0,9.35a5.54,5.54,0,1,1,5.62-5.56,5.44,5.44,0,0,1-5.62,5.56" transform="translate(0 0)"/><polygon class="cls-1" points="201.77 71.19 203.62 71.19 203.62 81.91 202.04 81.91 196.13 74.28 196.13 81.91 194.28 81.91 194.28 71.19 196.03 71.19 201.77 78.6 201.77 71.19"/><path class="cls-1" d="M211.62,73.37l-1.84,4.29h3.69Zm5.62,8.54h-2l-1.09-2.59H209.1L208,81.91h-1.93l4.72-10.79h1.75Z" transform="translate(0 0)"/><polygon class="cls-1" points="219.69 71.19 221.57 71.19 221.57 80.19 227.21 80.19 227.21 81.91 219.69 81.91 219.69 71.19"/><polygon class="cls-1" points="345.8 55.65 344.71 55.65 344.71 50.47 342.75 50.47 342.75 49.46 347.77 49.46 347.77 50.47 345.8 50.47 345.8 55.65"/><path class="cls-1" d="M351.54,51.82a1.4,1.4,0,0,0-1.41,1.5,1.44,1.44,0,0,0,1.42,1.51A1.4,1.4,0,0,0,353,53.33a1.44,1.44,0,0,0-1.43-1.51m0,3.94a2.42,2.42,0,0,1-2.48-2.42,2.49,2.49,0,1,1,2.48,2.42" transform="translate(0 0)"/><path class="cls-1" d="M358.73,51h1.07v4.67h-1.07V54.92a1.68,1.68,0,0,1-1.46.82A1.6,1.6,0,0,1,355.61,54V51h1.07v2.65a1,1,0,0,0,1,1.14,1,1,0,0,0,1.05-1.16V51Z" transform="translate(0 0)"/><path class="cls-1" d="M362.75,55.65h-1.07V51h1.07V52a1.66,1.66,0,0,1,1.65-1.14V52h-0.06a1.58,1.58,0,0,0-1.59,1.85v1.78Z" transform="translate(0 0)"/><path class="cls-1" d="M368,55.75a2.39,2.39,0,0,1-2.41-2.42A2.41,2.41,0,0,1,368,50.88a2.33,2.33,0,0,1,1.87.81l-0.66.72a1.57,1.57,0,0,0-1.21-.58,1.4,1.4,0,0,0-1.34,1.5,1.42,1.42,0,0,0,1.4,1.51,1.64,1.64,0,0,0,1.21-.58l0.65,0.64a2.35,2.35,0,0,1-1.91.88" transform="translate(0 0)"/><path class="cls-1" d="M373.66,51.82a1.4,1.4,0,0,0-1.41,1.5,1.44,1.44,0,0,0,1.42,1.51,1.4,1.4,0,0,0,1.41-1.49,1.45,1.45,0,0,0-1.43-1.51m0,3.94a2.42,2.42,0,0,1-2.47-2.42,2.49,2.49,0,1,1,2.47,2.42" transform="translate(0 0)"/><path class="cls-1" d="M377.85,51h1.07v4.67h-1.07V51Zm0-1.73H379v1H377.8v-1Z" transform="translate(0 0)"/><path class="cls-1" d="M381.91,55.65h-1.07V51h1.07V51.7a1.68,1.68,0,0,1,1.46-.82A1.6,1.6,0,0,1,385,52.68v3H384V53a1,1,0,0,0-1-1.14A1,1,0,0,0,381.91,53v2.63Z" transform="translate(0 0)"/><path class="cls-1" d="M389,51.78a1.3,1.3,0,1,0,0,2.59,1.3,1.3,0,1,0,0-2.59M388.51,58a4.05,4.05,0,0,1-1.39-.52l0.51-.81a5.24,5.24,0,0,0,.94.41c1,0.19,1.9-.27,1.9-2.34V54.32a2.2,2.2,0,0,1-1.73,1,2.2,2.2,0,0,1,0-4.39,2,2,0,0,1,1.63.79V51h1.07v3.71c0,2.46-1.14,3.47-2.94,3.26" transform="translate(0 0)"/><polygon class="cls-1" points="200.87 21.95 214.46 21.95 214.46 16.25 200.87 16.25 200.87 10.19 216.3 10.19 216.3 4.49 194.6 4.49 194.6 32.98 200.87 32.98 200.87 21.95"/></svg>