<svg width="364" height="205" viewBox="0 0 364 205" fill="none" xmlns="http://www.w3.org/2000/svg">
<g clip-path="url(#clip0_1_7)">
<rect width="364" height="205" fill="#D7D7D7"/>
<circle cx="138.5" cy="43.5" r="24.5" fill="gray"/>
<path d="M155.352 247.587H331.515L245.938 186.035L155.352 247.587Z" fill="gray"/>
<path d="M118.874 99.8824C114.645 90.1031 99.8911 62.3217 68.1168 59.2763C57.1486 57.561 45.92 58.8913 35.6563 63.1221C25.3926 67.3529 16.4881 74.3216 9.91466 83.2677C6.00265 87.7122 2.67109 92.6356 0 97.9198V248.975H0.372223C3.75607 238.992 21.7581 191.449 67.7107 191.449C104.459 191.449 123.104 222.107 130.718 239.432L245.769 161.265L364 246.267V110.034L245.904 43L118.874 99.8824Z" fill="gray"/>
</g>
<defs>
<clipPath id="clip0_1_7">
<rect width="364" height="205" fill="white"/>
</clipPath>
</defs>
</svg>
